<svg width="80" height="80" viewBox="0 0 80 80" fill="none" xmlns="http://www.w3.org/2000/svg">
<g filter="url(#filter0_b_191_2357)">
<circle cx="40" cy="40" r="40" fill="url(#paint0_linear_191_2357)" fill-opacity="0.1"/>
</g>
<circle cx="40" cy="40" r="39" stroke="url(#paint1_linear_191_2357)" stroke-width="2"/>
<path d="M57.9908 19.5973C57.7638 19.8058 57.5159 19.9965 57.2506 20.1695C57.7682 19.1102 57.8005 17.88 57.3595 16.8029C57.1752 17.1353 56.9528 17.4525 56.6958 17.7509C56.7749 16.7735 56.5006 15.7944 55.9254 15.0001C55.8061 15.4345 55.6333 15.8617 55.403 16.2723C54.3898 18.0779 52.5341 19.1115 50.6043 19.1589C47.7177 16.8933 44.0796 15.5417 40.1253 15.5417C36.1707 15.5417 32.5325 16.8935 29.6457 19.1593C27.6276 19.1991 25.6537 18.1557 24.5968 16.2722C24.3665 15.8616 24.1937 15.4344 24.0745 15C23.4992 15.7943 23.225 16.7734 23.3041 17.7507C23.047 17.4523 22.8246 17.1352 22.6405 16.8027C22.1994 17.8798 22.2317 19.11 22.7492 20.1693C22.484 19.9964 22.236 19.8056 22.0092 19.5972C21.9052 21.1485 22.6884 22.6924 24.1427 23.4862C24.5675 23.718 25.0154 23.8664 25.4674 23.9383C24.9395 24.8369 24.4912 25.7881 24.1337 26.7825C25.8944 25.0689 28.2984 24.013 30.9495 24.013C35.1341 24.013 38.704 26.6433 40.0975 30.3406C41.4908 26.6433 45.0606 24.013 49.2452 24.013C51.939 24.013 54.3783 25.103 56.1463 26.8658C55.7783 25.8254 55.3117 24.8317 54.758 23.8955C55.1332 23.814 55.5033 23.6794 55.8573 23.4862C57.3114 22.6925 58.0947 21.1487 57.9908 19.5973Z" fill="white"/>
<path d="M42.6917 41.0371L40.0973 44.3276L37.503 41.0371C35.7693 42.6051 33.4711 43.5602 30.9494 43.5602C28.6838 43.5602 26.5987 42.7891 24.9411 41.4953C29.5091 55.3573 40.1933 64.8811 40.1933 64.8811C40.1933 64.8811 50.8982 55.293 55.4281 41.3555C53.7436 42.7333 51.591 43.5602 49.2451 43.5602C46.7236 43.5602 44.4253 42.605 42.6917 41.0371Z" fill="white"/>
<path fill-rule="evenodd" clip-rule="evenodd" d="M22.3486 33.7864C22.3486 29.0362 26.1994 25.1855 30.9492 25.1855C35.6991 25.1855 39.5499 29.0362 39.5499 33.7864C39.5499 38.5363 35.6991 42.3868 30.9492 42.3868C26.1994 42.3868 22.3486 38.5363 22.3486 33.7864ZM25.2632 33.7864C25.2632 36.9267 27.8091 39.4724 30.9492 39.4724C34.0893 39.4724 36.6352 36.9267 36.6352 33.7864C36.6352 30.646 34.0892 28.1004 30.9492 28.1004C27.8091 28.1004 25.2632 30.646 25.2632 33.7864ZM40.6441 33.7864C40.6441 29.0363 44.495 25.1856 49.2448 25.1856C53.9949 25.1856 57.8456 29.0363 57.8456 33.7864C57.8456 38.5364 53.9949 42.3869 49.2448 42.3869C44.495 42.3869 40.6441 38.5364 40.6441 33.7864ZM43.559 33.7864C43.559 36.9267 46.1049 39.4724 49.2448 39.4724C52.385 39.4724 54.9309 36.9267 54.9309 33.7864C54.9309 30.646 52.385 28.1004 49.2448 28.1004C46.1049 28.1004 43.559 30.646 43.559 33.7864Z" fill="url(#paint2_linear_191_2357)"/>
<path d="M45.3868 32.4C46.3176 32.4 47.0722 31.6454 47.0722 30.7146C47.0722 29.7838 46.3176 29.0293 45.3868 29.0293C44.456 29.0293 43.7015 29.7838 43.7015 30.7146C43.7015 31.6454 44.456 32.4 45.3868 32.4Z" fill="white"/>
<path d="M27.0908 32.4C28.0216 32.4 28.7761 31.6454 28.7761 30.7146C28.7761 29.7838 28.0216 29.0293 27.0908 29.0293C26.16 29.0293 25.4054 29.7838 25.4054 30.7146C25.4054 31.6454 26.16 32.4 27.0908 32.4Z" fill="white"/>
<defs>
<filter id="filter0_b_191_2357" x="-4" y="-4" width="88" height="88" filterUnits="userSpaceOnUse" color-interpolation-filters="sRGB">
<feFlood flood-opacity="0" result="BackgroundImageFix"/>
<feGaussianBlur in="BackgroundImage" stdDeviation="2"/>
<feComposite in2="SourceAlpha" operator="in" result="effect1_backgroundBlur_191_2357"/>
<feBlend mode="normal" in="SourceGraphic" in2="effect1_backgroundBlur_191_2357" result="shape"/>
</filter>
<linearGradient id="paint0_linear_191_2357" x1="3" y1="40" x2="77" y2="40" gradientUnits="userSpaceOnUse">
<stop stop-color="#492FE7"/>
<stop offset="1" stop-color="#F715ED" stop-opacity="0.92"/>
</linearGradient>
<linearGradient id="paint1_linear_191_2357" x1="6" y1="40" x2="80" y2="40" gradientUnits="userSpaceOnUse">
<stop stop-color="#492FE7"/>
<stop offset="1" stop-color="#F715ED" stop-opacity="0.92"/>
</linearGradient>
<linearGradient id="paint2_linear_191_2357" x1="22.3172" y1="33.8494" x2="56.2506" y2="35.8454" gradientUnits="userSpaceOnUse">
<stop stop-color="#4A30E7"/>
<stop offset="1" stop-color="#F715ED" stop-opacity="0.93"/>
</linearGradient>
</defs>
</svg>
