<svg width="216" height="275" viewBox="0 0 216 275" fill="none" xmlns="http://www.w3.org/2000/svg">
    <path fill-rule="evenodd" clip-rule="evenodd" d="M204.26 226.802H186.922L195.458 246.212L204.26 226.802ZM85.1534 251.613L77.3271 268.222H93.0374L85.1534 251.613Z" fill="url(#paint0_linear_225_258)"/>
    <path d="M0.0458984 259.012V226.801H8.58565V259.012C8.58565 264.055 10.7377 266.611 14.5034 266.611C18.269 266.611 20.4211 264.055 20.4211 259.012V226.801H29.029V259.012C29.029 268.898 23.515 274.613 14.5034 274.613C5.55995 274.613 0.0458984 268.897 0.0458984 259.012Z" fill="#1A1F21"/>
    <path d="M36.1089 226.801H48.4143C57.7618 226.801 63.2088 232.382 63.2088 241.999V258.474C63.2088 268.158 57.7618 273.874 48.5491 273.874H36.1093V226.801H36.1089ZM48.5487 266.005C52.6507 266.005 54.8705 263.383 54.8705 258.407V241.998C54.8705 237.157 52.6507 234.668 48.5487 234.668H44.3802V266.005H48.5487V266.005Z" fill="#1A1F21"/>
    <path d="M85.272 226.802L80.5435 236.876H80.5438L63.2085 273.874H107.097L85.272 226.802ZM73.1569 270.621L85.1529 245.041L97.0933 270.621H73.1569Z" fill="#1A1F21"/>
    <path d="M171.117 266.005L168.195 273.873H142.27L144.89 268.225L160.694 234.668H144.721L148.056 226.801H173.587L170.781 232.517L155.046 266.006H171.117V266.005Z" fill="#1A1F21"/>
    <path d="M138.892 266.005L135.969 273.873H110.044L112.666 268.225L128.469 234.668H112.494L115.831 226.801H141.362L138.556 232.517L122.82 266.006H138.892V266.005Z" fill="#1A1F21"/>
    <path d="M199.977 260.747L215.861 226.802H208.051L195.458 253.051L182.899 226.802H175.345L191.551 260.747V271.231H181.593V273.912H191.551H199.977H209.935V271.231H199.977V260.747Z" fill="#1A1F21"/>
    <circle cx="142.5" cy="75.5" r="24.5" fill="#1A1F21"/>
    <circle cx="69.5" cy="75.5" r="24.5" fill="#1A1F21"/>
    <path d="M176.973 18.8795C176.063 19.7148 175.07 20.4793 174.006 21.1725C176.081 16.9269 176.21 11.9966 174.443 7.67978C173.704 9.01224 172.813 10.2834 171.783 11.4791C172.1 7.56182 171.001 3.63798 168.695 0.454484C168.217 2.1956 167.524 3.90761 166.601 5.55336C162.541 12.7898 155.103 16.9323 147.369 17.1223C135.8 8.0421 121.219 2.62533 105.371 2.62533C89.5215 2.62533 74.9399 8.04286 63.3702 17.1238C55.2821 17.2835 47.3708 13.1015 43.1352 5.55298C42.2122 3.90723 41.5197 2.19522 41.0417 0.454102C38.7361 3.6376 37.6372 7.56143 37.954 11.4784C36.9237 10.2826 36.0325 9.01147 35.2944 7.67902C33.5269 11.9958 33.6563 16.9262 35.7303 21.1717C34.6675 20.4789 33.6736 19.714 32.7643 18.8791C32.3476 25.0963 35.4867 31.2841 41.3152 34.4653C43.0176 35.3944 44.8128 35.9892 46.6243 36.2772C44.5086 39.879 42.712 43.691 41.2792 47.6765C48.3356 40.8085 57.9707 36.5767 68.5955 36.5767C85.3671 36.5767 99.6744 47.1184 105.259 61.9367C110.843 47.1184 125.151 36.5767 141.922 36.5767C152.718 36.5767 162.494 40.9452 169.58 48.0104C168.105 43.8407 166.236 39.8579 164.017 36.106C165.52 35.7793 167.004 35.2397 168.422 34.4653C174.25 31.2844 177.389 25.0971 176.973 18.8795Z" fill="#1A1F21"/>
    <path d="M115.657 104.806L105.259 117.994L94.8618 104.806C87.9134 111.091 78.7022 114.918 68.596 114.918C59.5158 114.918 51.1588 111.828 44.5156 106.643C62.8234 162.199 105.644 200.369 105.644 200.369C105.644 200.369 148.547 161.941 166.703 106.082C159.951 111.604 151.324 114.918 141.922 114.918C131.816 114.918 122.605 111.09 115.657 104.806Z" fill="#1A1F21"/>
    <path fill-rule="evenodd" clip-rule="evenodd" d="M34.126 75.7477C34.126 56.7099 49.5593 41.2769 68.596 41.2769C87.6326 41.2769 103.066 56.7099 103.066 75.7477C103.066 94.7847 87.6326 110.217 68.596 110.217C49.5593 110.217 34.126 94.7847 34.126 75.7477ZM45.8075 75.7477C45.8075 88.3335 56.011 98.5362 68.596 98.5362C81.181 98.5362 91.3845 88.3335 91.3845 75.7477C91.3845 63.1615 81.1806 52.9592 68.596 52.9592C56.011 52.9592 45.8075 63.1615 45.8075 75.7477ZM107.452 75.7477C107.452 56.7099 122.886 41.2769 141.922 41.2769C160.96 41.2769 176.393 56.7099 176.393 75.7477C176.393 94.7847 160.96 110.217 141.922 110.217C122.886 110.217 107.452 94.7847 107.452 75.7477ZM119.134 75.7477C119.134 88.3335 129.338 98.5362 141.922 98.5362C154.508 98.5362 164.711 88.3335 164.711 75.7477C164.711 63.1615 154.507 52.9592 141.922 52.9592C129.338 52.9592 119.134 63.1615 119.134 75.7477Z" fill="url(#paint1_linear_225_258)"/>
    <path d="M126.458 70.1892C130.188 70.1892 133.212 67.1651 133.212 63.4346C133.212 59.7042 130.188 56.6801 126.458 56.6801C122.727 56.6801 119.703 59.7042 119.703 63.4346C119.703 67.1651 122.727 70.1892 126.458 70.1892Z" fill="white"/>
    <path d="M53.1311 70.1892C56.8615 70.1892 59.8856 67.1651 59.8856 63.4346C59.8856 59.7042 56.8615 56.6801 53.1311 56.6801C49.4006 56.6801 46.3765 59.7042 46.3765 63.4346C46.3765 67.1651 49.4006 70.1892 53.1311 70.1892Z" fill="white"/>
    <defs>
        <linearGradient id="paint0_linear_225_258" x1="77.2333" y1="233.14" x2="173.485" y2="256.285" gradientUnits="userSpaceOnUse">
            <stop stop-color="#4A30E7"/>
            <stop offset="1" stop-color="#E915E2"/>
        </linearGradient>
        <linearGradient id="paint1_linear_225_258" x1="34.0002" y1="76" x2="170" y2="84" gradientUnits="userSpaceOnUse">
            <stop stop-color="#4A30E7"/>
            <stop offset="1" stop-color="#E915E2"/>
        </linearGradient>
    </defs>
</svg>
