<svg width="68" height="68" viewBox="0 0 68 68" fill="none" xmlns="http://www.w3.org/2000/svg">
<g filter="url(#filter0_f_1001_7520)">
<rect x="10.5" y="10.5" width="47" height="47" rx="23.5" stroke="white"/>
</g>
<rect x="10" y="10" width="48" height="48" rx="24" fill="#151515"/>
<rect x="11" y="11" width="46" height="46" rx="23" stroke="white" stroke-width="2"/>
<rect x="11" y="11" width="46" height="46" rx="23" stroke="url(#paint0_linear_1001_7520)" stroke-width="2"/>
<g filter="url(#filter1_f_1001_7520)">
<rect x="10.5" y="10.5" width="47" height="47" rx="23.5" stroke="white"/>
</g>
<path d="M25.0227 41C25.3712 39.995 25.6364 38.9075 25.8182 37.7375C26 36.5675 26.1136 35.2775 26.1591 33.8675C25.5227 33.6725 25.0038 33.2825 24.6023 32.6975C24.2008 32.1125 24 31.46 24 30.74V29.39C25.7424 28.79 27.5227 27.9012 29.3409 26.7237C31.1591 25.5462 32.7121 24.305 34 23C35.2879 24.305 36.8409 25.5462 38.6591 26.7237C40.4773 27.9012 42.2576 28.79 44 29.39V30.74C44 31.46 43.803 32.1125 43.4091 32.6975C43.0152 33.2825 42.5 33.6725 41.8636 33.8675C41.8939 35.2175 42.0038 36.485 42.1932 37.67C42.3826 38.855 42.6515 39.965 43 41H25.0227ZM27.4091 29.39H40.5909C39.4848 28.835 38.3864 28.1825 37.2955 27.4325C36.2045 26.6825 35.1061 25.82 34 24.845C32.9545 25.775 31.8788 26.6225 30.7727 27.3875C29.6667 28.1525 28.5455 28.82 27.4091 29.39ZM36.3409 32.6525C36.8258 32.6525 37.2197 32.4612 37.5227 32.0787C37.8258 31.6962 37.9773 31.25 37.9773 30.74H34.6818C34.6818 31.25 34.8371 31.6962 35.1477 32.0787C35.4583 32.4612 35.8561 32.6525 36.3409 32.6525ZM31.6818 32.6525C32.1667 32.6525 32.5606 32.4612 32.8636 32.0787C33.1667 31.6962 33.3182 31.25 33.3182 30.74H30.0227C30.0227 31.25 30.178 31.6962 30.4886 32.0787C30.7992 32.4612 31.197 32.6525 31.6818 32.6525ZM27.0227 32.6525C27.5076 32.6525 27.9015 32.4612 28.2045 32.0787C28.5076 31.6962 28.6591 31.25 28.6591 30.74H25.3636C25.3636 31.25 25.5189 31.6962 25.8295 32.0787C26.1402 32.4612 26.5379 32.6525 27.0227 32.6525ZM26.8409 39.65H29.8636C29.9848 38.885 30.0909 38.0525 30.1818 37.1525C30.2727 36.2525 30.3561 35.135 30.4318 33.8C30.2652 33.725 30.072 33.5938 29.8523 33.4062C29.6326 33.2188 29.4848 33.0425 29.4091 32.8775C29.1515 33.1775 28.8674 33.4175 28.5568 33.5975C28.2462 33.7775 27.9015 33.905 27.5227 33.98C27.4773 35.06 27.3977 36.0612 27.2841 36.9838C27.1705 37.9062 27.0227 38.795 26.8409 39.65ZM31.2727 39.65H36.75C36.6288 38.87 36.5303 38.03 36.4545 37.13C36.3788 36.23 36.3106 35.1725 36.25 33.9575C35.75 33.9275 35.2917 33.8037 34.875 33.5862C34.4583 33.3687 34.1439 33.0725 33.9318 32.6975C33.7197 33.0725 33.4242 33.3687 33.0455 33.5862C32.6667 33.8037 32.2424 33.9275 31.7727 33.9575C31.7121 34.9175 31.6477 35.87 31.5795 36.815C31.5114 37.76 31.4091 38.705 31.2727 39.65ZM38.1364 39.65H41.1818C40.9697 38.735 40.8106 37.8088 40.7045 36.8713C40.5985 35.9338 40.5303 34.97 40.5 33.98C40.1364 33.905 39.8144 33.7812 39.5341 33.6088C39.2538 33.4362 38.9848 33.1925 38.7273 32.8775C38.5758 33.0875 38.3939 33.275 38.1818 33.44C37.9697 33.605 37.7727 33.725 37.5909 33.8C37.6364 34.655 37.7008 35.5588 37.7841 36.5113C37.8674 37.4637 37.9848 38.51 38.1364 39.65ZM41 32.6525C41.4848 32.6525 41.8788 32.4612 42.1818 32.0787C42.4848 31.6962 42.6364 31.25 42.6364 30.74H39.3409C39.3409 31.25 39.4962 31.6962 39.8068 32.0787C40.1174 32.4612 40.5152 32.6525 41 32.6525Z" fill="white"/>
<defs>
<filter id="filter0_f_1001_7520" x="0" y="0" width="68" height="68" filterUnits="userSpaceOnUse" color-interpolation-filters="sRGB">
<feFlood flood-opacity="0" result="BackgroundImageFix"/>
<feBlend mode="normal" in="SourceGraphic" in2="BackgroundImageFix" result="shape"/>
<feGaussianBlur stdDeviation="5" result="effect1_foregroundBlur_1001_7520"/>
</filter>
<filter id="filter1_f_1001_7520" x="0" y="0" width="68" height="68" filterUnits="userSpaceOnUse" color-interpolation-filters="sRGB">
<feFlood flood-opacity="0" result="BackgroundImageFix"/>
<feBlend mode="normal" in="SourceGraphic" in2="BackgroundImageFix" result="shape"/>
<feGaussianBlur stdDeviation="5" result="effect1_foregroundBlur_1001_7520"/>
</filter>
<linearGradient id="paint0_linear_1001_7520" x1="9" y1="35" x2="56" y2="34" gradientUnits="userSpaceOnUse">
<stop stop-color="#492FE7"/>
<stop offset="1" stop-color="#F715ED" stop-opacity="0.92"/>
</linearGradient>
</defs>
</svg>
