<svg width="68" height="68" viewBox="0 0 68 68" fill="none" xmlns="http://www.w3.org/2000/svg">
<g filter="url(#filter0_f_408_6364)">
<rect x="10.5" y="10.5" width="47" height="47" rx="23.5" stroke="white"/>
</g>
<rect x="10" y="10" width="48" height="48" rx="24" fill="#151515"/>
<rect x="11" y="11" width="46" height="46" rx="23" stroke="white" stroke-width="2"/>
<rect x="11" y="11" width="46" height="46" rx="23" stroke="url(#paint0_linear_408_6364)" stroke-width="2"/>
<g filter="url(#filter1_f_408_6364)">
<rect x="10.5" y="10.5" width="47" height="47" rx="23.5" stroke="white"/>
</g>
<path d="M27.9 44.0996V42.3996H33.15V36.5246L24.85 27.5496V25.8496H43.15V27.5496L34.85 36.5246V42.3996H40.1V44.0996H27.9ZM29.1 29.6246H38.9L40.925 27.6496H27.075L29.1 29.6246ZM34 34.9496L37.525 31.1246H30.475L34 34.9496Z" fill="white"/>
<defs>
<filter id="filter0_f_408_6364" x="0" y="0" width="68" height="68" filterUnits="userSpaceOnUse" color-interpolation-filters="sRGB">
<feFlood flood-opacity="0" result="BackgroundImageFix"/>
<feBlend mode="normal" in="SourceGraphic" in2="BackgroundImageFix" result="shape"/>
<feGaussianBlur stdDeviation="5" result="effect1_foregroundBlur_408_6364"/>
</filter>
<filter id="filter1_f_408_6364" x="0" y="0" width="68" height="68" filterUnits="userSpaceOnUse" color-interpolation-filters="sRGB">
<feFlood flood-opacity="0" result="BackgroundImageFix"/>
<feBlend mode="normal" in="SourceGraphic" in2="BackgroundImageFix" result="shape"/>
<feGaussianBlur stdDeviation="5" result="effect1_foregroundBlur_408_6364"/>
</filter>
<linearGradient id="paint0_linear_408_6364" x1="9" y1="35" x2="56" y2="34" gradientUnits="userSpaceOnUse">
<stop stop-color="#492FE7"/>
<stop offset="1" stop-color="#F715ED" stop-opacity="0.92"/>
</linearGradient>
</defs>
</svg>
