<svg width="68" height="68" viewBox="0 0 68 68" fill="none" xmlns="http://www.w3.org/2000/svg">
<g filter="url(#filter0_f_402_6363)">
<rect x="10.5" y="10.5" width="47" height="47" rx="23.5" stroke="white"/>
</g>
<rect x="10" y="10" width="48" height="48" rx="24" fill="#151515"/>
<rect x="11" y="11" width="46" height="46" rx="23" stroke="white" stroke-width="2"/>
<rect x="11" y="11" width="46" height="46" rx="23" stroke="url(#paint0_linear_402_6363)" stroke-width="2"/>
<g filter="url(#filter1_f_402_6363)">
<rect x="10.5" y="10.5" width="47" height="47" rx="23.5" stroke="white"/>
</g>
<path d="M40.475 29.275C40.7083 29.275 40.9042 29.1875 41.0625 29.0125C41.2208 28.8375 41.3 28.6417 41.3 28.425C41.3 28.1917 41.2208 27.9958 41.0625 27.8375C40.9042 27.6792 40.7083 27.6 40.475 27.6C40.2417 27.6 40.0458 27.6792 39.8875 27.8375C39.7292 27.9958 39.65 28.2 39.65 28.45C39.65 28.65 39.7292 28.8375 39.8875 29.0125C40.0458 29.1875 40.2417 29.275 40.475 29.275ZM36.175 29.275C36.4083 29.275 36.6042 29.1875 36.7625 29.0125C36.9208 28.8375 37 28.6417 37 28.425C37 28.1917 36.9208 27.9958 36.7625 27.8375C36.6042 27.6792 36.4083 27.6 36.175 27.6C35.9417 27.6 35.7458 27.6792 35.5875 27.8375C35.4292 27.9958 35.35 28.2 35.35 28.45C35.35 28.65 35.4292 28.8375 35.5875 29.0125C35.7458 29.1875 35.9417 29.275 36.175 29.275ZM35.625 32.875H40.975C40.975 32.325 40.7 31.8958 40.15 31.5875C39.6 31.2792 38.9833 31.125 38.3 31.125C37.6167 31.125 37 31.2792 36.45 31.5875C35.9 31.8958 35.625 32.325 35.625 32.875ZM28 44.525C26.3333 44.525 24.9167 43.9292 23.75 42.7375C22.5833 41.5458 22 40.15 22 38.55V31.725H34V38.55C34 40.15 33.4167 41.5458 32.25 42.7375C31.0833 43.9292 29.6667 44.525 28 44.525ZM28 42.9C29.2 42.9 30.225 42.4625 31.075 41.5875C31.925 40.7125 32.35 39.7 32.35 38.55V33.375H23.65V38.55C23.65 39.7 24.075 40.7125 24.925 41.5875C25.775 42.4625 26.8 42.9 28 42.9ZM38.3 36.8C37.75 36.8 37.2208 36.7333 36.7125 36.6C36.2042 36.4667 35.725 36.275 35.275 36.025V34.25C35.675 34.4667 36.1333 34.6708 36.65 34.8625C37.1667 35.0542 37.7167 35.15 38.3 35.15C39.5 35.15 40.525 34.75 41.375 33.95C42.225 33.15 42.65 32.175 42.65 31.025V25.625H33.875V30.5H32.225V24H44.3V31.025C44.3 32.625 43.7167 33.9875 42.55 35.1125C41.3833 36.2375 39.9667 36.8 38.3 36.8ZM25.875 36.8C26.1083 36.8 26.3042 36.7208 26.4625 36.5625C26.6208 36.4042 26.7 36.2083 26.7 35.975C26.7 35.725 26.6208 35.5208 26.4625 35.3625C26.3042 35.2042 26.1083 35.125 25.875 35.125C25.6417 35.125 25.4458 35.2042 25.2875 35.3625C25.1292 35.5208 25.05 35.725 25.05 35.975C25.05 36.2083 25.1292 36.4042 25.2875 36.5625C25.4458 36.7208 25.6417 36.8 25.875 36.8ZM30.2 36.8C30.4333 36.8 30.6292 36.7208 30.7875 36.5625C30.9458 36.4042 31.025 36.2083 31.025 35.975C31.025 35.725 30.9458 35.5208 30.7875 35.3625C30.6292 35.2042 30.4333 35.125 30.2 35.125C29.9667 35.125 29.7708 35.2042 29.6125 35.3625C29.4542 35.5208 29.375 35.725 29.375 35.975C29.375 36.2083 29.4542 36.4042 29.6125 36.5625C29.7708 36.7208 29.9667 36.8 30.2 36.8ZM28.075 40.65C28.7583 40.65 29.375 40.4958 29.925 40.1875C30.475 39.8792 30.75 39.45 30.75 38.9H25.4C25.4 39.45 25.675 39.8792 26.225 40.1875C26.775 40.4958 27.3917 40.65 28.075 40.65Z" fill="white"/>
<defs>
<filter id="filter0_f_402_6363" x="0" y="0" width="68" height="68" filterUnits="userSpaceOnUse" color-interpolation-filters="sRGB">
<feFlood flood-opacity="0" result="BackgroundImageFix"/>
<feBlend mode="normal" in="SourceGraphic" in2="BackgroundImageFix" result="shape"/>
<feGaussianBlur stdDeviation="5" result="effect1_foregroundBlur_402_6363"/>
</filter>
<filter id="filter1_f_402_6363" x="0" y="0" width="68" height="68" filterUnits="userSpaceOnUse" color-interpolation-filters="sRGB">
<feFlood flood-opacity="0" result="BackgroundImageFix"/>
<feBlend mode="normal" in="SourceGraphic" in2="BackgroundImageFix" result="shape"/>
<feGaussianBlur stdDeviation="5" result="effect1_foregroundBlur_402_6363"/>
</filter>
<linearGradient id="paint0_linear_402_6363" x1="9" y1="35" x2="56" y2="34" gradientUnits="userSpaceOnUse">
<stop stop-color="#492FE7"/>
<stop offset="1" stop-color="#F715ED" stop-opacity="0.92"/>
</linearGradient>
</defs>
</svg>
