<svg width="68" height="68" viewBox="0 0 68 68" fill="none" xmlns="http://www.w3.org/2000/svg">
<g filter="url(#filter0_f_1001_7517)">
<rect x="10.5" y="10.5" width="47" height="47" rx="23.5" stroke="white"/>
</g>
<rect x="10" y="10" width="48" height="48" rx="24" fill="#151515"/>
<rect x="11" y="11" width="46" height="46" rx="23" stroke="white" stroke-width="2"/>
<rect x="11" y="11" width="46" height="46" rx="23" stroke="url(#paint0_linear_1001_7517)" stroke-width="2"/>
<g filter="url(#filter1_f_1001_7517)">
<rect x="10.5" y="10.5" width="47" height="47" rx="23.5" stroke="white"/>
</g>
<path d="M41.9943 37.475C42.4648 37.7083 42.8612 37.6333 43.1835 37.25C43.5059 36.8667 43.5451 36.4667 43.3011 36.05L41.4455 32.7L40.0341 36.375L41.9943 37.475ZM36.4534 36.425H38.283L40.8182 30.375C40.9227 30.1417 40.9619 29.9125 40.9358 29.6875C40.9097 29.4625 40.7659 29.2917 40.5045 29.175L38.3352 28.275C38.0913 28.1583 37.8473 28.1583 37.6034 28.275C37.3595 28.3917 37.2288 28.5667 37.2114 28.8L36.4534 36.425ZM28.717 36.425H30.5205L29.7886 28.8C29.7712 28.55 29.6536 28.3667 29.4358 28.25C29.218 28.1333 28.961 28.1417 28.6648 28.275L26.6 29.125C26.3735 29.2083 26.2472 29.3958 26.221 29.6875C26.1949 29.9792 26.2254 30.2417 26.3125 30.475L28.717 36.425ZM25.0057 37.475L26.9659 36.375L25.5545 32.7L23.6989 36.175C23.4549 36.6417 23.5072 37.0208 23.8557 37.3125C24.2042 37.6042 24.5875 37.6583 25.0057 37.475ZM32.0886 36.425H34.8852L35.7477 27.325C35.7826 27.0917 35.7172 26.8958 35.5517 26.7375C35.3862 26.5792 35.1814 26.5 34.9375 26.5H32.0625C31.7837 26.5 31.5746 26.5792 31.4352 26.7375C31.2958 26.8958 31.2348 27.0917 31.2523 27.325L32.0886 36.425ZM24.4307 39C23.8034 39 23.2415 38.7792 22.7449 38.3375C22.2483 37.8958 22 37.325 22 36.625C22 36.4083 22.0392 36.2083 22.1176 36.025C22.196 35.8417 22.2788 35.6583 22.3659 35.475L24.7705 31C24.4742 30.25 24.4437 29.575 24.679 28.975C24.9142 28.375 25.3367 27.95 25.9466 27.7L28.1159 26.85C28.4121 26.7333 28.6996 26.675 28.9784 26.675C29.2572 26.675 29.5186 26.7417 29.7625 26.875C29.9019 26.2917 30.1807 25.8333 30.5989 25.5C31.017 25.1667 31.5049 25 32.0625 25H34.9375C35.4951 25 35.983 25.15 36.4011 25.45C36.8193 25.75 37.0981 26.1917 37.2375 26.775C37.4292 26.6917 37.6775 26.6542 37.9824 26.6625C38.2873 26.6708 38.5792 26.7333 38.858 26.85L41.0534 27.7C41.6807 27.9333 42.1163 28.3542 42.3602 28.9625C42.6042 29.5708 42.5606 30.2 42.2295 30.85L44.6341 35.45C44.6864 35.6 44.7604 35.775 44.8562 35.975C44.9521 36.175 45 36.3583 45 36.525C45 37.375 44.6951 38 44.0852 38.4C43.4754 38.8 42.8917 39 42.3341 39C42.1773 39 42.0117 38.9667 41.8375 38.9C41.6633 38.8333 41.4803 38.7583 41.2886 38.675L39.6943 37.925H27.2795L25.7636 38.675C25.5894 38.7583 25.389 38.8333 25.1625 38.9C24.936 38.9667 24.692 39 24.4307 39Z" fill="white"/>
<defs>
<filter id="filter0_f_1001_7517" x="0" y="0" width="68" height="68" filterUnits="userSpaceOnUse" color-interpolation-filters="sRGB">
<feFlood flood-opacity="0" result="BackgroundImageFix"/>
<feBlend mode="normal" in="SourceGraphic" in2="BackgroundImageFix" result="shape"/>
<feGaussianBlur stdDeviation="5" result="effect1_foregroundBlur_1001_7517"/>
</filter>
<filter id="filter1_f_1001_7517" x="0" y="0" width="68" height="68" filterUnits="userSpaceOnUse" color-interpolation-filters="sRGB">
<feFlood flood-opacity="0" result="BackgroundImageFix"/>
<feBlend mode="normal" in="SourceGraphic" in2="BackgroundImageFix" result="shape"/>
<feGaussianBlur stdDeviation="5" result="effect1_foregroundBlur_1001_7517"/>
</filter>
<linearGradient id="paint0_linear_1001_7517" x1="9" y1="35" x2="56" y2="34" gradientUnits="userSpaceOnUse">
<stop stop-color="#492FE7"/>
<stop offset="1" stop-color="#F715ED" stop-opacity="0.92"/>
</linearGradient>
</defs>
</svg>
