<svg width="22" height="22" viewBox="0 0 22 22" fill="none" xmlns="http://www.w3.org/2000/svg">
<path d="M10.2 21.9V20.025C7.91667 19.7917 6.01667 18.9167 4.5 17.4C2.98333 15.8833 2.10833 13.9833 1.875 11.7H0V10.2H1.875C2.10833 7.91667 2.98333 6.01667 4.5 4.5C6.01667 2.98333 7.91667 2.10833 10.2 1.875V0H11.7V1.875C13.9833 2.10833 15.8833 2.98333 17.4 4.5C18.9167 6.01667 19.7917 7.91667 20.025 10.2H21.9V11.7H20.025C19.7917 13.9833 18.9167 15.8833 17.4 17.4C15.8833 18.9167 13.9833 19.7917 11.7 20.025V21.9H10.2ZM10.95 18.55C13.0333 18.55 14.8208 17.8042 16.3125 16.3125C17.8042 14.8208 18.55 13.0333 18.55 10.95C18.55 8.86667 17.8042 7.07917 16.3125 5.5875C14.8208 4.09583 13.0333 3.35 10.95 3.35C8.86667 3.35 7.07917 4.09583 5.5875 5.5875C4.09583 7.07917 3.35 8.86667 3.35 10.95C3.35 13.0333 4.09583 14.8208 5.5875 16.3125C7.07917 17.8042 8.86667 18.55 10.95 18.55ZM10.95 14.7C9.9 14.7 9.0125 14.3375 8.2875 13.6125C7.5625 12.8875 7.2 12 7.2 10.95C7.2 9.9 7.5625 9.0125 8.2875 8.2875C9.0125 7.5625 9.9 7.2 10.95 7.2C12 7.2 12.8875 7.5625 13.6125 8.2875C14.3375 9.0125 14.7 9.9 14.7 10.95C14.7 12 14.3375 12.8875 13.6125 13.6125C12.8875 14.3375 12 14.7 10.95 14.7ZM10.95 13.2C11.5833 13.2 12.1167 12.9833 12.55 12.55C12.9833 12.1167 13.2 11.5833 13.2 10.95C13.2 10.3167 12.9833 9.78333 12.55 9.35C12.1167 8.91667 11.5833 8.7 10.95 8.7C10.3167 8.7 9.78333 8.91667 9.35 9.35C8.91667 9.78333 8.7 10.3167 8.7 10.95C8.7 11.5833 8.91667 12.1167 9.35 12.55C9.78333 12.9833 10.3167 13.2 10.95 13.2Z" fill="#80E6B5"/>
</svg>
