<svg width="48" height="48" viewBox="0 0 48 48" fill="none" xmlns="http://www.w3.org/2000/svg">
<circle cx="24" cy="24" r="24" fill="url(#paint0_linear_1104_11115)"/>
<path fill-rule="evenodd" clip-rule="evenodd" d="M30.0791 33.875C28.1694 34.8522 25.9605 35.4103 23.6067 35.4103C16.3636 35.4103 10.4919 30.1258 10.4919 23.607C10.4919 17.0882 16.3636 11.8037 23.6067 11.8037C30.8498 11.8037 36.7214 17.0882 36.7214 23.607C36.7214 26.2849 35.7305 28.7546 34.0607 30.7351L35.3637 33.6667C35.8479 34.7564 34.7446 35.8745 33.6486 35.4048L30.0791 33.875ZM21.6395 23.607C21.6395 22.5205 22.5202 21.6398 23.6067 21.6398C24.6932 21.6398 25.5739 22.5205 25.5739 23.607C25.5739 24.6935 24.6932 25.5742 23.6067 25.5742C22.5202 25.5742 21.6395 24.6935 21.6395 23.607ZM17.0493 21.6398C15.9629 21.6398 15.0821 22.5205 15.0821 23.607C15.0821 24.6935 15.9629 25.5742 17.0493 25.5742C18.1358 25.5742 19.0165 24.6935 19.0165 23.607C19.0165 22.5205 18.1358 21.6398 17.0493 21.6398ZM28.1969 23.607C28.1969 22.5205 29.0776 21.6398 30.1641 21.6398C31.2505 21.6398 32.1313 22.5205 32.1313 23.607C32.1313 24.6935 31.2505 25.5742 30.1641 25.5742C29.0776 25.5742 28.1969 24.6935 28.1969 23.607Z" fill="url(#paint1_linear_1104_11115)"/>
<defs>
<linearGradient id="paint0_linear_1104_11115" x1="1.42796e-07" y1="24.3934" x2="48" y2="24.3934" gradientUnits="userSpaceOnUse">
<stop stop-color="#492FE7"/>
<stop offset="1" stop-color="#F715ED" stop-opacity="0.92"/>
</linearGradient>
<linearGradient id="paint1_linear_1104_11115" x1="23.6067" y1="11.8037" x2="23.6067" y2="35.515" gradientUnits="userSpaceOnUse">
<stop stop-color="white"/>
<stop offset="1" stop-color="white" stop-opacity="0.75"/>
</linearGradient>
</defs>
</svg>
