<svg width="16" height="16" viewBox="0 0 16 16" fill="none" xmlns="http://www.w3.org/2000/svg">
<circle cx="8" cy="8" r="8" fill="url(#paint0_linear_1102_10343)"/>
<path d="M7.58019 12.5876V11.4688H6.46131V10.6296H7.58019V9.20302C6.81563 9.10046 6.18159 8.7578 5.6781 8.17505C5.1746 7.5923 4.92285 6.91398 4.92285 6.14009C4.92285 5.2916 5.22355 4.56899 5.82495 3.97225C6.42635 3.37552 7.15129 3.07715 7.99977 3.07715C8.84826 3.07715 9.5732 3.37552 10.1746 3.97225C10.776 4.56899 11.0767 5.2916 11.0767 6.14009C11.0767 6.91398 10.8249 7.5923 10.3215 8.17505C9.81796 8.7578 9.18392 9.10046 8.41935 9.20302V10.6296H9.53824V11.4688H8.41935V12.5876H7.58019ZM7.99977 8.39183C8.61516 8.39183 9.14197 8.17272 9.58019 7.73449C10.0184 7.29626 10.2375 6.76946 10.2375 6.15407C10.2375 5.53869 10.0184 5.01188 9.58019 4.57365C9.14197 4.13542 8.61516 3.91631 7.99977 3.91631C7.38439 3.91631 6.85758 4.13542 6.41936 4.57365C5.98113 5.01188 5.76201 5.53869 5.76201 6.15407C5.76201 6.76946 5.98113 7.29626 6.41936 7.73449C6.85758 8.17272 7.38439 8.39183 7.99977 8.39183Z" fill="white"/>
<defs>
<linearGradient id="paint0_linear_1102_10343" x1="8" y1="0" x2="8" y2="16" gradientUnits="userSpaceOnUse">
<stop stop-color="#E46A8F"/>
<stop offset="1" stop-color="#E46A8F" stop-opacity="0.46"/>
</linearGradient>
</defs>
</svg>
