<svg width="16" height="16" viewBox="0 0 16 16" fill="none" xmlns="http://www.w3.org/2000/svg">
<circle cx="8" cy="8" r="8" fill="url(#paint0_linear_1102_10340)"/>
<path d="M12.9233 3.07715V6.46176H12.0002V4.66176L9.16946 7.47715C9.38484 7.77458 9.55151 8.10023 9.66946 8.45407C9.78741 8.80792 9.84638 9.16946 9.84638 9.53869C9.84638 10.4823 9.51817 11.2823 8.86176 11.9387C8.20535 12.5951 7.40535 12.9233 6.46176 12.9233C5.51817 12.9233 4.71817 12.5951 4.06176 11.9387C3.40535 11.2823 3.07715 10.4823 3.07715 9.53869C3.07715 8.5951 3.40535 7.7951 4.06176 7.13869C4.71817 6.48228 5.51817 6.15407 6.46176 6.15407C6.83099 6.15407 7.18997 6.21305 7.53869 6.33099C7.8874 6.44894 8.21048 6.61561 8.50792 6.831L11.3387 4.00023H9.53869V3.07715H12.9233ZM6.46176 7.07715C5.78484 7.07715 5.20535 7.31817 4.7233 7.80023C4.24125 8.28228 4.00023 8.86176 4.00023 9.53869C4.00023 10.2156 4.24125 10.7951 4.7233 11.2771C5.20535 11.7592 5.78484 12.0002 6.46176 12.0002C7.13869 12.0002 7.71817 11.7592 8.20023 11.2771C8.68228 10.7951 8.9233 10.2156 8.9233 9.53869C8.9233 8.86176 8.68228 8.28228 8.20023 7.80023C7.71817 7.31817 7.13869 7.07715 6.46176 7.07715Z" fill="white"/>
<defs>
<linearGradient id="paint0_linear_1102_10340" x1="8" y1="0" x2="8" y2="16" gradientUnits="userSpaceOnUse">
<stop stop-color="#17A1FA"/>
<stop offset="1" stop-color="#17A1FA" stop-opacity="0.62"/>
</linearGradient>
</defs>
</svg>
