<svg width="16" height="16" viewBox="0 0 16 16" fill="none" xmlns="http://www.w3.org/2000/svg">
<circle cx="8" cy="8" r="8" fill="url(#paint0_linear_1102_10347)"/>
<path fill-rule="evenodd" clip-rule="evenodd" d="M7.58068 4.69922V6.96495C6.81611 7.06752 6.18208 7.41017 5.67858 7.99292C5.17509 8.57568 4.92334 9.254 4.92334 10.0279C4.92334 10.8764 5.22404 11.599 5.82544 12.1957C6.42684 12.7925 7.15178 13.0908 8.00026 13.0908C8.84875 13.0908 9.57369 12.7925 10.1751 12.1957C10.7765 11.599 11.0772 10.8764 11.0772 10.0279C11.0772 9.254 10.8254 8.57568 10.3219 7.99292C9.81844 7.41017 9.18441 7.06752 8.41984 6.96495V4.69922H7.58068ZM6.41984 8.43348C6.85807 7.99526 7.38488 7.77614 8.00026 7.77614C8.61565 7.77614 9.14245 7.99526 9.58068 8.43348C10.0189 8.87171 10.238 9.39852 10.238 10.0139C10.238 10.6293 10.0189 11.1561 9.58068 11.5943C9.14245 12.0326 8.61565 12.2517 8.00026 12.2517C7.38488 12.2517 6.85807 12.0326 6.41984 11.5943C5.98162 11.1561 5.7625 10.6293 5.7625 10.0139C5.7625 9.39852 5.98162 8.87171 6.41984 8.43348Z" fill="white"/>
<path d="M7.31256 6.20062L6.73044 5.8831L7.45368 4.6483H6.04248V3.99562H7.45368L6.73044 2.77846L7.31256 2.46094L8.00052 3.6781L8.68848 2.46094L9.2706 2.77846L8.54736 3.99562H9.95856V4.6483H8.54736L9.2706 5.8831L8.68848 6.20062L8.00052 4.98346L7.31256 6.20062Z" fill="white"/>
<defs>
<linearGradient id="paint0_linear_1102_10347" x1="8" y1="0" x2="8" y2="16" gradientUnits="userSpaceOnUse">
<stop stop-color="#9A5FFC"/>
<stop offset="1" stop-color="#9A5FFC" stop-opacity="0.46"/>
</linearGradient>
</defs>
</svg>
