<svg width="18" height="16" viewBox="0 0 18 16" fill="none" xmlns="http://www.w3.org/2000/svg">
<path d="M14.0531 12.0237C13.4355 12.3712 12.7527 12.6365 12.0246 12.8022C12.2251 12.2073 12.3333 11.5738 12.3333 10.9167C12.3333 7.46489 9.34856 4.66667 5.66666 4.66667C4.88592 4.66667 4.13653 4.79249 3.4403 5.02368C4.28931 2.41152 7.01664 0.5 10.25 0.5C14.162 0.5 17.3333 3.29822 17.3333 6.75C17.3333 7.88309 16.9916 8.94575 16.3941 9.86213C16.4127 9.89277 16.4297 9.92507 16.4447 9.95902L17.3039 11.8921C17.6116 12.5845 16.9105 13.295 16.2141 12.9965L14.281 12.1681C14.1945 12.131 14.1184 12.0818 14.0531 12.0237Z" fill="#F615ED"/>
<path d="M5.66666 15.5C8.42808 15.5 10.6667 13.448 10.6667 10.9167C10.6667 8.38536 8.42808 6.33333 5.66666 6.33333C2.90524 6.33333 0.666659 8.38536 0.666659 10.9167C0.666659 11.6199 0.839444 12.2862 1.14822 12.8817L0.594609 14.335C0.324227 15.0447 1.0667 15.7166 1.74603 15.377L2.95905 14.7705C3.73937 15.2321 4.66888 15.5 5.66666 15.5Z" fill="#9823EA"/>
</svg>
