<svg width="9" height="14" viewBox="0 0 9 14" fill="none" xmlns="http://www.w3.org/2000/svg">
<path d="M2.75705 7.00018L7.70705 11.9502C7.80256 12.0424 7.87874 12.1528 7.93115 12.2748C7.98356 12.3968 8.01115 12.528 8.0123 12.6608C8.01345 12.7936 7.98815 12.9252 7.93787 13.0481C7.88759 13.171 7.81334 13.2827 7.71944 13.3766C7.62555 13.4705 7.5139 13.5447 7.391 13.595C7.26811 13.6453 7.13643 13.6706 7.00365 13.6694C6.87087 13.6683 6.73965 13.6407 6.61764 13.5883C6.49564 13.5359 6.3853 13.4597 6.29305 13.3642L0.636048 7.70718C0.448577 7.51965 0.343262 7.26535 0.343262 7.00018C0.343262 6.73502 0.448577 6.48071 0.636048 6.29318L6.29305 0.636181C6.48165 0.454022 6.73425 0.353228 6.99645 0.355507C7.25865 0.357785 7.50946 0.462954 7.69487 0.648362C7.88027 0.83377 7.98544 1.08458 7.98772 1.34678C7.99 1.60898 7.88921 1.86158 7.70705 2.05018L2.75705 7.00018Z" fill="white"/>
</svg>
