<svg width="14" height="14" viewBox="0 0 14 14" fill="none" xmlns="http://www.w3.org/2000/svg">
    <path d="M4.49992 10.1997L6.99992 7.69967L9.49992 10.1997L10.1999 9.49967L7.69992 6.99967L10.1999 4.49967L9.49992 3.79967L6.99992 6.29967L4.49992 3.79967L3.79992 4.49967L6.29992 6.99967L3.79992 9.49967L4.49992 10.1997ZM6.99992 13.6663C6.08881 13.6663 5.2277 13.4913 4.41658 13.1413C3.60547 12.7913 2.89714 12.3136 2.29159 11.708C1.68603 11.1025 1.20825 10.3941 0.858252 9.58301C0.508252 8.7719 0.333252 7.91079 0.333252 6.99967C0.333252 6.07745 0.508252 5.21079 0.858252 4.39967C1.20825 3.58856 1.68603 2.88301 2.29159 2.28301C2.89714 1.68301 3.60547 1.20801 4.41658 0.858008C5.2277 0.508008 6.08881 0.333008 6.99992 0.333008C7.92214 0.333008 8.78881 0.508008 9.59992 0.858008C10.411 1.20801 11.1166 1.68301 11.7166 2.28301C12.3166 2.88301 12.7916 3.58856 13.1416 4.39967C13.4916 5.21079 13.6666 6.07745 13.6666 6.99967C13.6666 7.91079 13.4916 8.7719 13.1416 9.58301C12.7916 10.3941 12.3166 11.1025 11.7166 11.708C11.1166 12.3136 10.411 12.7913 9.59992 13.1413C8.78881 13.4913 7.92214 13.6663 6.99992 13.6663ZM6.99992 12.6663C8.5777 12.6663 9.91658 12.1136 11.0166 11.008C12.1166 9.90245 12.6666 8.56634 12.6666 6.99967C12.6666 5.4219 12.1166 4.08301 11.0166 2.98301C9.91658 1.88301 8.5777 1.33301 6.99992 1.33301C5.43325 1.33301 4.09714 1.88301 2.99159 2.98301C1.88603 4.08301 1.33325 5.4219 1.33325 6.99967C1.33325 8.56634 1.88603 9.90245 2.99159 11.008C4.09714 12.1136 5.43325 12.6663 6.99992 12.6663Z" fill="white" fill-opacity="0.5"/>
</svg>