<?xml version="1.0" encoding="utf-8"?>
<!-- Generator: Adobe Illustrator 26.0.1, SVG Export Plug-In . SVG Version: 6.00 Build 0)  -->
<svg version="1.1" id="Layer_1" xmlns="http://www.w3.org/2000/svg" xmlns:xlink="http://www.w3.org/1999/xlink" x="0px" y="0px"
	 viewBox="0 0 7.5 7.2" style="enable-background:new 0 0 7.5 7.2;" xml:space="preserve">
<style type="text/css">
	.st0{fill:#FFFDFD;}
</style>
<path class="st0" d="M7.5,0.2C7.5,0.1,7.4,0,7.3,0L5.9,0L3.7,2.6L1.6,0L0.2,0C0.1,0,0,0.1,0,0.2c0,0,0,0.1,0,0.1l2.8,3.3L0,6.9
	C0,7,0,7,0,7.1c0,0.1,0.1,0.2,0.2,0.2l1.4,0l2.1-2.5l2.1,2.5l1.4,0c0.1,0,0.2-0.1,0.2-0.2c0,0,0-0.1,0-0.1L4.6,3.6l2.8-3.3
	C7.4,0.3,7.5,0.2,7.5,0.2z"/>
</svg>
