<?xml version="1.0" encoding="utf-8"?>
<!-- Generator: Adobe Illustrator 26.0.1, SVG Export Plug-In . SVG Version: 6.00 Build 0)  -->
<svg version="1.1" id="Layer_1" xmlns="http://www.w3.org/2000/svg" xmlns:xlink="http://www.w3.org/1999/xlink" x="0px" y="0px"
	 viewBox="0 0 21 21" style="enable-background:new 0 0 21 21;" xml:space="preserve">
<style type="text/css">
	.st0{clip-path:url(#SVGID_00000060000328500705647060000005718054668485409943_);}
	.st1{fill:#FCFCFC;}
	.st2{fill:#FFFFFF;}
</style>
<g>
	<defs>
		<rect id="SVGID_1_" width="21" height="21"/>
	</defs>
	<clipPath id="SVGID_00000060001333050612992900000000193269816717081737_">
		<use xlink:href="#SVGID_1_"  style="overflow:visible;"/>
	</clipPath>
	<g style="clip-path:url(#SVGID_00000060001333050612992900000000193269816717081737_);">
		<path class="st1" d="M10.5,20c0.4,0,0.7-0.1,1-0.4c0.3-0.2,0.5-0.6,0.5-0.9H8.9c0.1,0.4,0.2,0.7,0.5,1C9.8,19.9,10.1,20,10.5,20z"
			/>
		<path class="st2" d="M19,16.2c-0.6-0.5-1.1-1.1-1.5-1.7c-0.4-0.9-0.7-1.8-0.8-2.8V8.8c0-0.4,0-0.7-0.1-1c-0.5-0.1-0.9-0.3-1.3-0.5
			c0.2,0.5,0.2,1,0.2,1.5v2.9c0.1,1.2,0.4,2.4,1,3.4c0.4,0.6,0.9,1.2,1.4,1.8H3c0.5-0.5,1-1.1,1.4-1.8c0.6-1.1,0.9-2.2,1-3.4V8.8
			c0-0.7,0.1-1.3,0.4-2C6,6.2,6.4,5.7,6.9,5.2c0.5-0.5,1-0.9,1.7-1.1s1.3-0.4,2-0.4c1,0,2,0.3,2.8,0.8c-0.1-0.3-0.1-0.7-0.2-1V3.1
			c-0.6-0.3-1.3-0.5-1.9-0.6V1.8c0-0.2-0.1-0.4-0.2-0.6C10.8,1.1,10.6,1,10.4,1S10,1.1,9.9,1.3C9.7,1.4,9.6,1.6,9.6,1.8v0.8
			c-1.5,0.2-2.9,1-3.9,2.1c-1,1.2-1.5,2.6-1.5,4.1v2.9c-0.1,1-0.3,1.9-0.8,2.8C3,15.2,2.5,15.7,2,16.2c-0.1,0.1-0.1,0.1-0.1,0.2
			c0,0.1-0.1,0.2-0.1,0.2v0.8c0,0.2,0.1,0.3,0.2,0.4S2.2,18,2.4,18h16.2c0.2,0,0.3-0.1,0.4-0.2c0.1-0.1,0.2-0.3,0.2-0.4v-0.8
			c0-0.1,0-0.2-0.1-0.2C19.1,16.4,19,16.3,19,16.2z"/>
		<path class="st2" d="M17.5,6.4c1.6,0,2.9-1.3,2.9-2.9c0-1.6-1.3-2.9-2.9-2.9c-1.6,0-2.9,1.3-2.9,2.9C14.6,5.1,15.9,6.4,17.5,6.4z"
			/>
	</g>
</g>
</svg>
