<svg width="24" height="24" viewBox="0 0 24 24" fill="none" xmlns="http://www.w3.org/2000/svg">
<path d="M10.23 17.46L18.72 8.97L17.34 7.62L10.23 14.73L6.63 11.13L5.28 12.48L10.23 17.46ZM12 24C10.3 24 8.72 23.695 7.26 23.085C5.8 22.475 4.53 21.63 3.45 20.55C2.37 19.47 1.525 18.2 0.915 16.74C0.305 15.28 0 13.7 0 12C0 10.32 0.305 8.75 0.915 7.29C1.525 5.83 2.37 4.56 3.45 3.48C4.53 2.4 5.8 1.55 7.26 0.93C8.72 0.31 10.3 0 12 0C13.68 0 15.25 0.31 16.71 0.93C18.17 1.55 19.44 2.4 20.52 3.48C21.6 4.56 22.45 5.83 23.07 7.29C23.69 8.75 24 10.32 24 12C24 13.7 23.69 15.28 23.07 16.74C22.45 18.2 21.6 19.47 20.52 20.55C19.44 21.63 18.17 22.475 16.71 23.085C15.25 23.695 13.68 24 12 24ZM12 22.2C14.9 22.2 17.325 21.225 19.275 19.275C21.225 17.325 22.2 14.9 22.2 12C22.2 9.1 21.225 6.675 19.275 4.725C17.325 2.775 14.9 1.8 12 1.8C9.1 1.8 6.675 2.775 4.725 4.725C2.775 6.675 1.8 9.1 1.8 12C1.8 14.9 2.775 17.325 4.725 19.275C6.675 21.225 9.1 22.2 12 22.2Z" fill="white"/>
</svg>
