<svg width="24" height="24" viewBox="0 0 24 24" fill="none" xmlns="http://www.w3.org/2000/svg">
<path d="M3.68227 10.1111C3.68227 7.95107 5.4363 6.20001 7.6 6.20001C9.76371 6.20001 11.5177 7.95107 11.5177 10.1111C11.5177 12.2712 9.76371 14.0222 7.6 14.0222C5.4363 14.0222 3.68227 12.2712 3.68227 10.1111Z" fill="url(#paint0_linear_302_4250)"/>
<path d="M7.6 15.5867C5.30059 15.5867 3.23252 16.18 1.79917 17.1249C-0.00637722 18.3152 1.51856 20.28 3.68227 20.28H11.5177C13.6814 20.28 15.2064 18.3152 13.4008 17.1249C11.9675 16.18 9.89941 15.5867 7.6 15.5867Z" fill="url(#paint1_linear_302_4250)"/>
<path d="M16.3802 18.08C16.3704 18.0006 16.3567 17.9205 16.3391 17.84C16.1639 17.0418 15.6372 16.3947 14.9211 15.9226C13.9427 15.2776 12.7656 14.7718 11.4636 14.435C12.811 13.7795 14.5289 13.3867 16.4 13.3867C18.6994 13.3867 20.7675 13.9799 22.2008 14.9249C24.0064 16.1152 22.4814 18.08 20.3177 18.08H16.3802Z" fill="url(#paint2_linear_302_4250)"/>
<path d="M13.5823 7.84349C13.5823 5.72079 15.306 4 17.4323 4C19.5586 4 21.2823 5.72079 21.2823 7.84349C21.2823 9.9662 19.5586 11.687 17.4323 11.687C15.306 11.687 13.5823 9.9662 13.5823 7.84349Z" fill="url(#paint3_linear_302_4250)"/>
<defs>
<linearGradient id="paint0_linear_302_4250" x1="12" y1="4" x2="12" y2="20.28" gradientUnits="userSpaceOnUse">
<stop stop-color="white"/>
<stop offset="1" stop-color="white" stop-opacity="0.75"/>
</linearGradient>
<linearGradient id="paint1_linear_302_4250" x1="12" y1="4" x2="12" y2="20.28" gradientUnits="userSpaceOnUse">
<stop stop-color="white"/>
<stop offset="1" stop-color="white" stop-opacity="0.75"/>
</linearGradient>
<linearGradient id="paint2_linear_302_4250" x1="12" y1="4" x2="12" y2="20.28" gradientUnits="userSpaceOnUse">
<stop stop-color="white"/>
<stop offset="1" stop-color="white" stop-opacity="0.75"/>
</linearGradient>
<linearGradient id="paint3_linear_302_4250" x1="12" y1="4" x2="12" y2="20.28" gradientUnits="userSpaceOnUse">
<stop stop-color="white"/>
<stop offset="1" stop-color="white" stop-opacity="0.75"/>
</linearGradient>
</defs>
</svg>
