<svg width="14" height="8" viewBox="0 0 14 8" fill="none" xmlns="http://www.w3.org/2000/svg">
<path d="M7.07102 5.31388L12.021 0.363882C12.1133 0.268372 12.2236 0.19219 12.3456 0.139781C12.4676 0.0873716 12.5988 0.0597853 12.7316 0.0586315C12.8644 0.0574777 12.9961 0.0827794 13.119 0.13306C13.2419 0.183341 13.3535 0.257594 13.4474 0.351487C13.5413 0.44538 13.6156 0.557032 13.6658 0.679928C13.7161 0.802824 13.7414 0.934504 13.7403 1.06728C13.7391 1.20006 13.7115 1.33128 13.6591 1.45329C13.6067 1.57529 13.5305 1.68564 13.435 1.77788L7.77802 7.43488C7.59049 7.62235 7.33619 7.72767 7.07102 7.72767C6.80586 7.72767 6.55155 7.62235 6.36402 7.43488L0.707022 1.77788C0.611511 1.68564 0.535329 1.57529 0.48292 1.45329C0.430511 1.33128 0.402925 1.20006 0.401771 1.06728C0.400617 0.934504 0.425919 0.802824 0.4762 0.679928C0.526481 0.557032 0.600734 0.44538 0.694627 0.351487C0.788519 0.257594 0.900171 0.183341 1.02307 0.13306C1.14596 0.0827794 1.27764 0.0574777 1.41042 0.0586315C1.5432 0.0597853 1.67442 0.0873716 1.79643 0.139781C1.91843 0.19219 2.02877 0.268372 2.12102 0.363882L7.07102 5.31388Z" fill="white"/>
</svg>
