<svg width="26" height="26" viewBox="0 0 26 26" fill="none" xmlns="http://www.w3.org/2000/svg">
<circle cx="13" cy="13" r="13" fill="#595959"/>
<path d="M18.4943 7.50573C17.82 6.83142 16.7267 6.83142 16.0524 7.50573L13 10.5581L9.94763 7.50573C9.27332 6.83142 8.18004 6.83142 7.50573 7.50573C6.83142 8.18004 6.83142 9.27332 7.50573 9.94763L10.5581 13L7.50573 16.0524C6.83142 16.7267 6.83142 17.82 7.50573 18.4943C8.18004 19.1686 9.27332 19.1686 9.94763 18.4943L13 15.4419L16.0524 18.4943C16.7267 19.1686 17.82 19.1686 18.4943 18.4943C19.1686 17.82 19.1686 16.7267 18.4943 16.0524L15.4419 13L18.4943 9.94763C19.1686 9.27332 19.1686 8.18004 18.4943 7.50573Z" fill="url(#paint0_linear_988_8498)" fill-opacity="0.5"/>
<defs>
<linearGradient id="paint0_linear_988_8498" x1="13" y1="7" x2="13" y2="19" gradientUnits="userSpaceOnUse">
<stop stop-color="white"/>
<stop offset="1" stop-color="white" stop-opacity="0.75"/>
</linearGradient>
</defs>
</svg>
