<svg width="20" height="19" viewBox="0 0 20 19" fill="none" xmlns="http://www.w3.org/2000/svg">
<path d="M20 8C20 9.10457 19.1046 10 18 10L16 10C15.4477 10 15 9.55228 15 9L15 1C15 0.447716 15.4477 3.29338e-07 16 3.7762e-07L18 5.52466e-07C19.1046 6.4903e-07 20 0.895431 20 2L20 8Z" fill="url(#paint0_linear_1364_189)"/>
<path d="M9.78547 18.0363C9.47186 18.8204 8.38772 18.8868 7.98077 18.1469L7.64254 17.5319C6.76255 15.9319 6.65906 14.0183 7.36138 12.3327L7.5 12H4.3472C2.00704 12 0.166677 9.9999 0.361017 7.66782L0.694351 3.66782C0.867115 1.59465 2.60018 -1.8187e-07 4.68053 0L11 5.52466e-07C12.1046 6.4903e-07 13 0.89543 13 2V8.07418C13 9.34637 12.7572 10.6069 12.2848 11.7881L9.78547 18.0363Z" fill="url(#paint1_linear_1364_189)"/>
<defs>
<linearGradient id="paint0_linear_1364_189" x1="10.1735" y1="0" x2="10.1735" y2="18.665" gradientUnits="userSpaceOnUse">
<stop stop-color="white"/>
<stop offset="1" stop-color="white" stop-opacity="0.75"/>
</linearGradient>
<linearGradient id="paint1_linear_1364_189" x1="10.1735" y1="0" x2="10.1735" y2="18.665" gradientUnits="userSpaceOnUse">
<stop stop-color="white"/>
<stop offset="1" stop-color="white" stop-opacity="0.75"/>
</linearGradient>
</defs>
</svg>
