<svg width="20" height="19" viewBox="0 0 20 19" fill="none" xmlns="http://www.w3.org/2000/svg">
<path d="M0 11C0 9.89539 0.895431 8.99996 2 8.99996H4C4.55228 8.99996 5 9.44767 5 9.99996V18C5 18.5522 4.55228 19 4 19H2C0.89543 19 0 18.1045 0 17L0 11Z" fill="url(#paint0_linear_1364_110)"/>
<path d="M10.2145 0.963624C10.5281 0.179592 11.6123 0.113193 12.0192 0.853095L12.3575 1.46806C13.2375 3.06805 13.3409 4.9817 12.6386 6.66726L12.5 6.99996H15.6528C17.993 6.99996 19.8333 9.00006 19.639 11.3321L19.3057 15.3321C19.1329 17.4053 17.3998 19 15.3195 19H9C7.89543 19 7 18.1045 7 17V10.9258C7 9.65359 7.24275 8.39308 7.71523 7.21187L10.2145 0.963624Z" fill="url(#paint1_linear_1364_110)"/>
<defs>
<linearGradient id="paint0_linear_1364_110" x1="9.82654" y1="0.334961" x2="9.82654" y2="19" gradientUnits="userSpaceOnUse">
<stop stop-color="white"/>
<stop offset="1" stop-color="white" stop-opacity="0.75"/>
</linearGradient>
<linearGradient id="paint1_linear_1364_110" x1="9.82654" y1="0.334961" x2="9.82654" y2="19" gradientUnits="userSpaceOnUse">
<stop stop-color="white"/>
<stop offset="1" stop-color="white" stop-opacity="0.75"/>
</linearGradient>
</defs>
</svg>
