<svg width="10" height="16" viewBox="0 0 10 16" fill="none" xmlns="http://www.w3.org/2000/svg">
<path d="M1.33325 15.3337C1.06659 15.3337 0.833252 15.2337 0.633252 15.0337C0.433252 14.8337 0.333252 14.6003 0.333252 14.3337V1.66699C0.333252 1.40033 0.433252 1.16699 0.633252 0.966992C0.833252 0.766992 1.06659 0.666992 1.33325 0.666992H8.66658C8.93325 0.666992 9.16658 0.766992 9.36658 0.966992C9.56658 1.16699 9.66658 1.40033 9.66658 1.66699V14.3337C9.66658 14.6003 9.56658 14.8337 9.36658 15.0337C9.16658 15.2337 8.93325 15.3337 8.66658 15.3337H1.33325ZM1.33325 13.8337V14.3337H8.66658V13.8337H1.33325ZM1.33325 12.8337H8.66658V3.16699H1.33325V12.8337ZM1.33325 2.16699H8.66658V1.66699H1.33325V2.16699ZM1.33325 2.16699V1.66699V2.16699ZM1.33325 13.8337V14.3337V13.8337Z" fill="white"/>
</svg>
