<svg width="14" height="13" viewBox="0 0 14 13" fill="none" xmlns="http://www.w3.org/2000/svg">
<path d="M1.33325 12.9997C1.06659 12.9997 0.833252 12.8997 0.633252 12.6997C0.433252 12.4997 0.333252 12.2663 0.333252 11.9997V3.99967C0.333252 3.73301 0.433252 3.49967 0.633252 3.29967C0.833252 3.09967 1.06659 2.99967 1.33325 2.99967H4.33325V1.33301C4.33325 1.06634 4.43325 0.833008 4.63325 0.633008C4.83325 0.433008 5.06659 0.333008 5.33325 0.333008H8.66658C8.93325 0.333008 9.16658 0.433008 9.36658 0.633008C9.56658 0.833008 9.66658 1.06634 9.66658 1.33301V2.99967H12.6666C12.9333 2.99967 13.1666 3.09967 13.3666 3.29967C13.5666 3.49967 13.6666 3.73301 13.6666 3.99967V11.9997C13.6666 12.2663 13.5666 12.4997 13.3666 12.6997C13.1666 12.8997 12.9333 12.9997 12.6666 12.9997H1.33325ZM1.33325 11.9997H12.6666V3.99967H1.33325V11.9997ZM5.33325 2.99967H8.66658V1.33301H5.33325V2.99967ZM1.33325 11.9997V3.99967V11.9997Z" fill="white"/>
</svg>
