<svg width="12" height="14" viewBox="0 0 12 14" fill="none" xmlns="http://www.w3.org/2000/svg">
<path d="M6.00008 6.83301C6.3223 6.83301 6.5973 6.71912 6.82508 6.49134C7.05286 6.26356 7.16675 5.98856 7.16675 5.66634C7.16675 5.34412 7.05286 5.06912 6.82508 4.84134C6.5973 4.61356 6.3223 4.49967 6.00008 4.49967C5.67786 4.49967 5.40286 4.61356 5.17508 4.84134C4.9473 5.06912 4.83341 5.34412 4.83341 5.66634C4.83341 5.98856 4.9473 6.26356 5.17508 6.49134C5.40286 6.71912 5.67786 6.83301 6.00008 6.83301ZM6.00008 12.3497C7.47786 11.0052 8.56953 9.78579 9.27508 8.69134C9.98064 7.5969 10.3334 6.63301 10.3334 5.79967C10.3334 4.48856 9.91397 3.41634 9.07508 2.58301C8.23619 1.74967 7.21119 1.33301 6.00008 1.33301C4.78897 1.33301 3.76397 1.74967 2.92508 2.58301C2.08619 3.41634 1.66675 4.48856 1.66675 5.79967C1.66675 6.63301 2.02786 7.5969 2.75008 8.69134C3.4723 9.78579 4.55564 11.0052 6.00008 12.3497ZM6.00008 13.6663C4.21119 12.1441 2.87508 10.7302 1.99175 9.42467C1.10841 8.11912 0.666748 6.91079 0.666748 5.79967C0.666748 4.13301 1.20286 2.80523 2.27508 1.81634C3.3473 0.827452 4.58897 0.333008 6.00008 0.333008C7.41119 0.333008 8.65286 0.827452 9.72508 1.81634C10.7973 2.80523 11.3334 4.13301 11.3334 5.79967C11.3334 6.91079 10.8917 8.11912 10.0084 9.42467C9.12508 10.7302 7.78897 12.1441 6.00008 13.6663Z" fill="white"/>
</svg>
