<svg width="29" height="34" viewBox="0 0 29 34" fill="none" xmlns="http://www.w3.org/2000/svg">
<g filter="url(#filter0_d_1102_9355)">
<path d="M12.757 17.0002L17.707 21.9502C17.8026 22.0424 17.8787 22.1528 17.9311 22.2748C17.9836 22.3968 18.0111 22.528 18.0123 22.6608C18.0135 22.7936 17.9882 22.9252 17.9379 23.0481C17.8876 23.171 17.8133 23.2827 17.7194 23.3766C17.6256 23.4705 17.5139 23.5447 17.391 23.595C17.2681 23.6453 17.1364 23.6706 17.0036 23.6694C16.8709 23.6683 16.7396 23.6407 16.6176 23.5883C16.4956 23.5359 16.3853 23.4597 16.293 23.3642L10.636 17.7072C10.4486 17.5197 10.3433 17.2653 10.3433 17.0002C10.3433 16.735 10.4486 16.4807 10.636 16.2932L16.293 10.6362C16.4817 10.454 16.7343 10.3532 16.9964 10.3555C17.2586 10.3578 17.5095 10.463 17.6949 10.6484C17.8803 10.8338 17.9854 11.0846 17.9877 11.3468C17.99 11.609 17.8892 11.8616 17.707 12.0502L12.757 17.0002Z" fill="white"/>
</g>
<defs>
<filter id="filter0_d_1102_9355" x="-8" y="-5" width="44" height="44" filterUnits="userSpaceOnUse" color-interpolation-filters="sRGB">
<feFlood flood-opacity="0" result="BackgroundImageFix"/>
<feColorMatrix in="SourceAlpha" type="matrix" values="0 0 0 0 0 0 0 0 0 0 0 0 0 0 0 0 0 0 127 0" result="hardAlpha"/>
<feOffset/>
<feGaussianBlur stdDeviation="5"/>
<feComposite in2="hardAlpha" operator="out"/>
<feColorMatrix type="matrix" values="0 0 0 0 0 0 0 0 0 0 0 0 0 0 0 0 0 0 0.25 0"/>
<feBlend mode="normal" in2="BackgroundImageFix" result="effect1_dropShadow_1102_9355"/>
<feBlend mode="normal" in="SourceGraphic" in2="effect1_dropShadow_1102_9355" result="shape"/>
</filter>
</defs>
</svg>
