<svg width="20" height="20" viewBox="0 0 20 20" fill="none" xmlns="http://www.w3.org/2000/svg">
<path d="M13.0623 14.0212L13.9998 13.0837L10.6873 9.75033V5.56283H9.43734V10.2503L13.0623 14.0212ZM9.99984 18.3337C8.86095 18.3337 7.78456 18.1149 6.77067 17.6774C5.75678 17.2399 4.87137 16.6427 4.11442 15.8857C3.35748 15.1288 2.76025 14.2434 2.32275 13.2295C1.88525 12.2156 1.6665 11.1392 1.6665 10.0003C1.6665 8.86144 1.88525 7.78505 2.32275 6.77116C2.76025 5.75727 3.35748 4.87185 4.11442 4.11491C4.87137 3.35796 5.75678 2.76074 6.77067 2.32324C7.78456 1.88574 8.86095 1.66699 9.99984 1.66699C11.1387 1.66699 12.2151 1.88574 13.229 2.32324C14.2429 2.76074 15.1283 3.35796 15.8853 4.11491C16.6422 4.87185 17.2394 5.75727 17.6769 6.77116C18.1144 7.78505 18.3332 8.86144 18.3332 10.0003C18.3332 11.1392 18.1144 12.2156 17.6769 13.2295C17.2394 14.2434 16.6422 15.1288 15.8853 15.8857C15.1283 16.6427 14.2429 17.2399 13.229 17.6774C12.2151 18.1149 11.1387 18.3337 9.99984 18.3337ZM9.99984 17.0837C11.9443 17.0837 13.6109 16.3892 14.9998 15.0003C16.3887 13.6114 17.0832 11.9448 17.0832 10.0003C17.0832 8.05588 16.3887 6.38921 14.9998 5.00033C13.6109 3.61144 11.9443 2.91699 9.99984 2.91699C8.05539 2.91699 6.38873 3.61144 4.99984 5.00033C3.61095 6.38921 2.9165 8.05588 2.9165 10.0003C2.9165 11.9448 3.61095 13.6114 4.99984 15.0003C6.38873 16.3892 8.05539 17.0837 9.99984 17.0837Z" fill="white"/>
</svg>
