<svg width="36" height="35" viewBox="0 0 36 35" fill="none" xmlns="http://www.w3.org/2000/svg">
<path d="M6.67303 28.4551H8.27303L24.3821 12.3461L22.7821 10.7461L6.67303 26.8551V28.4551ZM29.0003 10.7824L24.3458 6.12788L25.873 4.6006C26.2851 4.18848 26.7942 3.98242 27.4003 3.98242C28.0064 3.98242 28.5154 4.18848 28.9276 4.6006L30.5276 6.2006C30.9397 6.61272 31.1458 7.12182 31.1458 7.72788C31.1458 8.33394 30.9397 8.84303 30.5276 9.25515L29.0003 10.7824ZM27.473 12.3097L9.14576 30.637H4.49121V25.9824L22.8185 7.65515L27.473 12.3097ZM23.5821 11.5461L22.7821 10.7461L24.3821 12.3461L23.5821 11.5461Z" fill="white"/>
</svg>
