<svg width="20" height="20" viewBox="0 0 20 20" fill="none" xmlns="http://www.w3.org/2000/svg">
<path d="M10.0002 9.79199C10.4029 9.79199 10.7467 9.64963 11.0314 9.36491C11.3161 9.08019 11.4585 8.73644 11.4585 8.33366C11.4585 7.93088 11.3161 7.58713 11.0314 7.30241C10.7467 7.01769 10.4029 6.87533 10.0002 6.87533C9.59738 6.87533 9.25363 7.01769 8.96891 7.30241C8.68419 7.58713 8.54183 7.93088 8.54183 8.33366C8.54183 8.73644 8.68419 9.08019 8.96891 9.36491C9.25363 9.64963 9.59738 9.79199 10.0002 9.79199ZM10.0002 16.6878C11.8474 15.0073 13.212 13.483 14.0939 12.1149C14.9759 10.7469 15.4168 9.54199 15.4168 8.50033C15.4168 6.86144 14.8925 5.52116 13.8439 4.47949C12.7953 3.43783 11.5141 2.91699 10.0002 2.91699C8.48627 2.91699 7.20502 3.43783 6.15641 4.47949C5.1078 5.52116 4.5835 6.86144 4.5835 8.50033C4.5835 9.54199 5.03488 10.7469 5.93766 12.1149C6.84044 13.483 8.19461 15.0073 10.0002 16.6878ZM10.0002 18.3337C7.76405 16.4309 6.09391 14.6635 4.98975 13.0316C3.88558 11.3996 3.3335 9.88921 3.3335 8.50033C3.3335 6.41699 4.00363 4.75727 5.34391 3.52116C6.68419 2.28505 8.23627 1.66699 10.0002 1.66699C11.7641 1.66699 13.3161 2.28505 14.6564 3.52116C15.9967 4.75727 16.6668 6.41699 16.6668 8.50033C16.6668 9.88921 16.1147 11.3996 15.0106 13.0316C13.9064 14.6635 12.2363 16.4309 10.0002 18.3337Z" fill="white"/>
</svg>
