<svg width="29" height="29" viewBox="0 0 29 29" fill="none" xmlns="http://www.w3.org/2000/svg">
<rect y="5.25293" width="19.844" height="19.844" rx="5.0238" transform="rotate(-15.3487 0 5.25293)" fill="url(#paint0_linear_1102_9447)"/>
<circle cx="1.50714" cy="22.1038" r="1.50714" fill="url(#paint1_linear_1102_9447)"/>
<g filter="url(#filter0_bd_1102_9447)">
<rect x="6.02832" y="5.77734" width="19.844" height="19.844" rx="5.52618" fill="#9B5FFF" fill-opacity="0.4" shape-rendering="crispEdges"/>
<rect x="6.15392" y="5.90294" width="19.5928" height="19.5928" rx="5.40058" stroke="url(#paint2_linear_1102_9447)" stroke-width="0.25119" shape-rendering="crispEdges"/>
</g>
<g filter="url(#filter1_bd_1102_9447)">
<rect x="6.1284" y="5.87743" width="19.6438" height="19.6438" rx="5.42609" stroke="url(#paint3_linear_1102_9447)" stroke-width="0.200167" shape-rendering="crispEdges"/>
</g>
<g filter="url(#filter2_d_1102_9447)">
<path fill-rule="evenodd" clip-rule="evenodd" d="M11.9528 14.8445C13.0281 15.0114 13.856 16.0477 13.856 17.3011C13.856 18.6708 12.8673 19.7811 11.6477 19.7811C10.5339 19.7811 10.5414 18.8552 10.5511 17.6514C10.552 17.537 10.5529 17.42 10.5529 17.3011C10.5529 17.1821 10.552 17.0652 10.5511 16.9507C10.5441 16.0902 10.5384 15.3716 10.9425 15.0318C11.1549 12.5218 13.2595 10.5508 15.8245 10.5508C18.3895 10.5508 20.4942 12.5218 20.7065 15.0318C21.1107 15.3716 21.1049 16.0902 21.098 16.9507C21.0971 17.0652 21.0961 17.1821 21.0961 17.3011C21.0961 17.42 21.0971 17.537 21.098 17.6514C21.1077 18.8552 21.1151 19.7811 20.0014 19.7811C18.7817 19.7811 17.793 18.6708 17.793 17.3011C17.793 16.0477 18.621 15.0114 19.6962 14.8445C19.4049 12.9682 17.7824 11.5322 15.8245 11.5322C13.8666 11.5322 12.2441 12.9682 11.9528 14.8445Z" fill="url(#paint4_linear_1102_9447)" shape-rendering="crispEdges"/>
</g>
<defs>
<filter id="filter0_bd_1102_9447" x="1.50691" y="1.25593" width="28.8866" height="28.8866" filterUnits="userSpaceOnUse" color-interpolation-filters="sRGB">
<feFlood flood-opacity="0" result="BackgroundImageFix"/>
<feGaussianBlur in="BackgroundImageFix" stdDeviation="2.26071"/>
<feComposite in2="SourceAlpha" operator="in" result="effect1_backgroundBlur_1102_9447"/>
<feColorMatrix in="SourceAlpha" type="matrix" values="0 0 0 0 0 0 0 0 0 0 0 0 0 0 0 0 0 0 127 0" result="hardAlpha"/>
<feOffset/>
<feGaussianBlur stdDeviation="1.25595"/>
<feComposite in2="hardAlpha" operator="out"/>
<feColorMatrix type="matrix" values="0 0 0 0 0 0 0 0 0 0 0 0 0 0 0 0 0 0 0.1 0"/>
<feBlend mode="normal" in2="effect1_backgroundBlur_1102_9447" result="effect2_dropShadow_1102_9447"/>
<feBlend mode="normal" in="SourceGraphic" in2="effect2_dropShadow_1102_9447" result="shape"/>
</filter>
<filter id="filter1_bd_1102_9447" x="1.50691" y="1.25593" width="28.8866" height="28.8866" filterUnits="userSpaceOnUse" color-interpolation-filters="sRGB">
<feFlood flood-opacity="0" result="BackgroundImageFix"/>
<feGaussianBlur in="BackgroundImageFix" stdDeviation="2.26071"/>
<feComposite in2="SourceAlpha" operator="in" result="effect1_backgroundBlur_1102_9447"/>
<feColorMatrix in="SourceAlpha" type="matrix" values="0 0 0 0 0 0 0 0 0 0 0 0 0 0 0 0 0 0 127 0" result="hardAlpha"/>
<feOffset/>
<feGaussianBlur stdDeviation="1.25595"/>
<feComposite in2="hardAlpha" operator="out"/>
<feColorMatrix type="matrix" values="0 0 0 0 0 0 0 0 0 0 0 0 0 0 0 0 0 0 0.1 0"/>
<feBlend mode="normal" in2="effect1_backgroundBlur_1102_9447" result="effect2_dropShadow_1102_9447"/>
<feBlend mode="normal" in="SourceGraphic" in2="effect2_dropShadow_1102_9447" result="shape"/>
</filter>
<filter id="filter2_d_1102_9447" x="8.54765" y="9.75011" width="14.5536" height="13.2338" filterUnits="userSpaceOnUse" color-interpolation-filters="sRGB">
<feFlood flood-opacity="0" result="BackgroundImageFix"/>
<feColorMatrix in="SourceAlpha" type="matrix" values="0 0 0 0 0 0 0 0 0 0 0 0 0 0 0 0 0 0 127 0" result="hardAlpha"/>
<feOffset dy="1.201"/>
<feGaussianBlur stdDeviation="1.00083"/>
<feComposite in2="hardAlpha" operator="out"/>
<feColorMatrix type="matrix" values="0 0 0 0 0.392818 0 0 0 0 0.216031 0 0 0 0 0.687464 0 0 0 0.5 0"/>
<feBlend mode="normal" in2="BackgroundImageFix" result="effect1_dropShadow_1102_9447"/>
<feBlend mode="normal" in="SourceGraphic" in2="effect1_dropShadow_1102_9447" result="shape"/>
</filter>
<linearGradient id="paint0_linear_1102_9447" x1="6.45855" y1="14.2406" x2="38.595" y2="-7.55508" gradientUnits="userSpaceOnUse">
<stop stop-color="#9B5FFF"/>
<stop offset="1" stop-color="#9B5FFF" stop-opacity="0"/>
</linearGradient>
<linearGradient id="paint1_linear_1102_9447" x1="1.50714" y1="20.5967" x2="-0.502379" y2="24.7413" gradientUnits="userSpaceOnUse">
<stop stop-color="#9B5FFF"/>
<stop offset="1" stop-color="#9B5FFF" stop-opacity="0"/>
</linearGradient>
<linearGradient id="paint2_linear_1102_9447" x1="6.00477" y1="6.30523" x2="15.0123" y2="15.613" gradientUnits="userSpaceOnUse">
<stop stop-color="#A878FB"/>
<stop offset="0.933493" stop-color="#A878FB" stop-opacity="0"/>
</linearGradient>
<linearGradient id="paint3_linear_1102_9447" x1="27.2225" y1="26.422" x2="13.7112" y2="13.6113" gradientUnits="userSpaceOnUse">
<stop stop-color="#A878FB"/>
<stop offset="0.933493" stop-color="#A878FB" stop-opacity="0"/>
</linearGradient>
<linearGradient id="paint4_linear_1102_9447" x1="16.4525" y1="21.1013" x2="15.8245" y2="6.15474" gradientUnits="userSpaceOnUse">
<stop stop-color="white"/>
<stop offset="1" stop-color="white" stop-opacity="0"/>
</linearGradient>
</defs>
</svg>
