<svg width="20" height="20" viewBox="0 0 20 20" fill="none" xmlns="http://www.w3.org/2000/svg">
<path d="M18.3332 4.58301V15.4163C18.3332 15.7497 18.2082 16.0413 17.9582 16.2913C17.7082 16.5413 17.4165 16.6663 17.0832 16.6663H2.9165C2.58317 16.6663 2.2915 16.5413 2.0415 16.2913C1.7915 16.0413 1.6665 15.7497 1.6665 15.4163V4.58301C1.6665 4.24967 1.7915 3.95801 2.0415 3.70801C2.2915 3.45801 2.58317 3.33301 2.9165 3.33301H17.0832C17.4165 3.33301 17.7082 3.45801 17.9582 3.70801C18.2082 3.95801 18.3332 4.24967 18.3332 4.58301ZM2.9165 6.85384H17.0832V4.58301H2.9165V6.85384ZM2.9165 9.54134V15.4163H17.0832V9.54134H2.9165ZM2.9165 15.4163V4.58301V15.4163Z" fill="white"/>
</svg>
