<svg width="16" height="16" viewBox="0 0 16 16" fill="none" xmlns="http://www.w3.org/2000/svg">
<path d="M13.4943 2.50573C12.82 1.83142 11.7267 1.83142 11.0524 2.50573L8 5.5581L4.94763 2.50573C4.27332 1.83142 3.18004 1.83142 2.50573 2.50573C1.83142 3.18004 1.83142 4.27332 2.50573 4.94763L5.5581 8L2.50573 11.0524C1.83142 11.7267 1.83142 12.82 2.50573 13.4943C3.18004 14.1686 4.27332 14.1686 4.94763 13.4943L8 10.4419L11.0524 13.4943C11.7267 14.1686 12.82 14.1686 13.4943 13.4943C14.1686 12.82 14.1686 11.7267 13.4943 11.0524L10.4419 8L13.4943 4.94763C14.1686 4.27332 14.1686 3.18004 13.4943 2.50573Z" fill="url(#paint0_linear_1102_10112)" fill-opacity="0.5"/>
<defs>
<linearGradient id="paint0_linear_1102_10112" x1="8" y1="2" x2="8" y2="14" gradientUnits="userSpaceOnUse">
<stop stop-color="white"/>
<stop offset="1" stop-color="white" stop-opacity="0.75"/>
</linearGradient>
</defs>
</svg>
