<svg width="24" height="24" viewBox="0 0 24 24" fill="none" xmlns="http://www.w3.org/2000/svg">
<path d="M10.7012 2.04162C11.2064 1.14517 12.4974 1.14517 13.0026 2.04162L15.3169 6.1475C15.5054 6.48193 15.83 6.71781 16.2064 6.79374L20.8264 7.72593C21.8351 7.92946 22.2341 9.15721 21.5376 9.91478L18.3478 13.3845C18.088 13.6672 17.964 14.0488 18.0081 14.4302L18.5492 19.1122C18.6673 20.1344 17.623 20.8932 16.6873 20.465L12.4016 18.5035C12.0526 18.3438 11.6512 18.3438 11.3022 18.5035L7.01653 20.465C6.08083 20.8932 5.03645 20.1344 5.15459 19.1122L5.6957 14.4302C5.73978 14.0488 5.61577 13.6672 5.35595 13.3845L2.16617 9.91478C1.46973 9.15721 1.86865 7.92946 2.87737 7.72593L7.49743 6.79374C7.87374 6.71781 8.19841 6.48193 8.38691 6.1475L10.7012 2.04162Z" fill="url(#paint0_linear_1102_9623)"/>
<path d="M10.845 2.1227C11.2871 1.3383 12.4167 1.3383 12.8588 2.1227L15.173 6.22857C15.3851 6.60481 15.7503 6.87018 16.1737 6.9556L20.7938 7.88779C21.6764 8.06588 22.0254 9.14016 21.4161 9.80303L18.2263 13.2728C17.934 13.5907 17.7945 14.0201 17.8441 14.4491L18.3852 19.1311C18.4885 20.0256 17.5747 20.6895 16.756 20.3148L12.4703 18.3534C12.0776 18.1736 11.6262 18.1736 11.2334 18.3534L6.94782 20.3148C6.12908 20.6895 5.21524 20.0256 5.31862 19.1311L5.85973 14.4491C5.90931 14.0201 5.7698 13.5907 5.47751 13.2728L2.28773 9.80303C1.67835 9.14016 2.0274 8.06588 2.91003 7.88779L7.53009 6.9556C7.95344 6.87018 8.31869 6.60481 8.53075 6.22857L10.845 2.1227Z" stroke="url(#paint1_linear_1102_9623)" stroke-width="0.330237"/>
<defs>
<linearGradient id="paint0_linear_1102_9623" x1="17.7808" y1="6.77334" x2="-0.381749" y2="18.2978" gradientUnits="userSpaceOnUse">
<stop offset="0.303921" stop-color="#FF759F" stop-opacity="0.88"/>
<stop offset="1" stop-color="#FF759F" stop-opacity="0"/>
</linearGradient>
<linearGradient id="paint1_linear_1102_9623" x1="19.6504" y1="3.4786" x2="2.69093" y2="15.943" gradientUnits="userSpaceOnUse">
<stop stop-color="#FF759F"/>
<stop offset="0.999545" stop-color="#FF759F" stop-opacity="0"/>
</linearGradient>
</defs>
</svg>
