<svg width="216" height="275" viewBox="0 0 216 275" fill="none" xmlns="http://www.w3.org/2000/svg">
<path d="M0 258.558V226.347H8.53976V258.558C8.53976 263.601 10.6918 266.157 14.4575 266.157C18.2231 266.157 20.3752 263.601 20.3752 258.558V226.347H28.9831V258.558C28.9831 268.444 23.4691 274.159 14.4575 274.159C5.51405 274.159 0 268.443 0 258.558Z" fill="white"/>
<path d="M36.063 226.347H48.3684C57.7159 226.347 63.1629 231.928 63.1629 241.545V258.02C63.1629 267.704 57.7159 273.419 48.5032 273.419H36.0634V226.347H36.063ZM48.5028 265.551C52.6048 265.551 54.8246 262.929 54.8246 257.952V241.544C54.8246 236.702 52.6048 234.214 48.5028 234.214H44.3343V265.551H48.5028V265.551Z" fill="white"/>
<path d="M85.2261 226.348L80.4976 236.422H80.4979L63.1626 273.42H107.051L85.2261 226.348ZM73.111 270.167L85.107 244.587L97.0474 270.167H73.111Z" fill="white"/>
<path d="M171.071 265.551L168.149 273.419H142.224L144.844 267.771L160.648 234.214H144.675L148.01 226.347H173.542L170.735 232.063L155 265.552H171.071V265.551Z" fill="white"/>
<path d="M138.846 265.551L135.923 273.419H109.998L112.62 267.771L128.423 234.214H112.448L115.785 226.347H141.316L138.51 232.063L122.775 265.552H138.846V265.551Z" fill="white"/>
<path d="M199.931 260.293L215.815 226.348H208.005L195.412 252.597L182.853 226.348H175.299L191.505 260.293V270.776H181.547V273.457H191.505H199.931H209.889V270.776H199.931V260.293Z" fill="white"/>
<path d="M176.927 18.4254C176.017 19.2607 175.024 20.0252 173.961 20.7184C176.035 16.4728 176.164 11.5425 174.397 7.22568C173.658 8.55814 172.767 9.82931 171.737 11.025C172.054 7.10772 170.955 3.18388 168.65 0.00038279C168.171 1.7415 167.479 3.45351 166.556 5.09926C162.495 12.3357 155.058 16.4782 147.323 16.6682C135.754 7.58799 121.173 2.17123 105.325 2.17123C89.4758 2.17123 74.8943 7.58876 63.3246 16.6697C55.2364 16.8294 47.3252 12.6474 43.0896 5.09888C42.1665 3.45313 41.4741 1.74112 40.9961 0C38.6904 3.1835 37.5916 7.10733 37.9083 11.0243C36.8781 9.82855 35.9868 8.55737 35.2488 7.22491C33.4812 11.5417 33.6107 16.4721 35.6846 20.7176C34.6218 20.0248 33.6279 19.2599 32.7187 18.425C32.302 24.6422 35.441 30.83 41.2695 34.0112C42.972 34.9403 44.7671 35.5351 46.5787 35.8231C44.463 39.4249 42.6663 43.2369 41.2335 47.2224C48.2899 40.3544 57.9251 36.1226 68.5499 36.1226C85.3214 36.1226 99.6288 46.6643 105.214 61.4826C110.798 46.6643 125.105 36.1226 141.876 36.1226C152.673 36.1226 162.449 40.4911 169.535 47.5563C168.06 43.3866 166.19 39.4038 163.971 35.6519C165.475 35.3252 166.958 34.7856 168.377 34.0112C174.204 30.8303 177.344 24.643 176.927 18.4254Z" fill="white"/>
<path d="M115.611 104.352L105.213 117.54L94.8161 104.352C87.8677 110.636 78.6566 114.464 68.5503 114.464C59.4702 114.464 51.1131 111.374 44.47 106.189C62.7778 161.745 105.598 199.915 105.598 199.915C105.598 199.915 148.502 161.487 166.657 105.628C159.906 111.15 151.278 114.464 141.876 114.464C131.771 114.464 122.559 110.636 115.611 104.352Z" fill="white"/>
<path fill-rule="evenodd" clip-rule="evenodd" d="M68.5498 40.8228C49.5132 40.8228 34.0798 56.2558 34.0798 75.2936C34.0798 94.3306 49.5132 109.763 68.5498 109.763C87.5865 109.763 103.02 94.3306 103.02 75.2936C103.02 56.2558 87.5865 40.8228 68.5498 40.8228ZM68.5498 98.0821C55.9648 98.0821 45.7613 87.8793 45.7613 75.2936C45.7613 62.7074 55.9648 52.5051 68.5498 52.5051C81.1344 52.5051 91.3383 62.7074 91.3383 75.2936C91.3383 87.8793 81.1348 98.0821 68.5498 98.0821ZM141.876 40.8228C122.84 40.8228 107.406 56.2558 107.406 75.2936C107.406 94.3306 122.84 109.763 141.876 109.763C160.914 109.763 176.347 94.3306 176.347 75.2936C176.347 56.2558 160.914 40.8228 141.876 40.8228ZM141.876 98.0821C129.292 98.0821 119.088 87.8793 119.088 75.2936C119.088 62.7074 129.292 52.5051 141.876 52.5051C154.461 52.5051 164.665 62.7074 164.665 75.2936C164.665 87.8793 154.462 98.0821 141.876 98.0821ZM186.876 226.348H204.214L195.412 245.758L186.876 226.348ZM77.2811 267.768L85.1073 251.159L92.9914 267.768H77.2811Z" fill="url(#paint0_linear_215_252)"/>
<path d="M126.412 69.7351C130.142 69.7351 133.166 66.711 133.166 62.9805C133.166 59.2501 130.142 56.226 126.412 56.226C122.681 56.226 119.657 59.2501 119.657 62.9805C119.657 66.711 122.681 69.7351 126.412 69.7351Z" fill="white"/>
<path d="M53.0849 69.7351C56.8154 69.7351 59.8395 66.711 59.8395 62.9805C59.8395 59.2501 56.8154 56.226 53.0849 56.226C49.3545 56.226 46.3303 59.2501 46.3303 62.9805C46.3303 66.711 49.3545 69.7351 53.0849 69.7351Z" fill="white"/>
<defs>
<linearGradient id="paint0_linear_215_252" x1="47.9542" y1="75.5459" x2="170.454" y2="75.5459" gradientUnits="userSpaceOnUse">
<stop stop-color="#4930E7"/>
<stop offset="1" stop-color="#F022EE"/>
</linearGradient>
</defs>
</svg>
