<svg width="25" height="24" viewBox="0 0 25 24" fill="none" xmlns="http://www.w3.org/2000/svg">
<path d="M11.6455 2.04162C12.1508 1.14517 13.4417 1.14517 13.947 2.04162L16.2612 6.1475C16.4497 6.48193 16.7744 6.71781 17.1507 6.79374L21.7708 7.72593C22.7795 7.92946 23.1784 9.15721 22.482 9.91478L19.2922 13.3845C19.0324 13.6672 18.9083 14.0488 18.9524 14.4302L19.4935 19.1122C19.6117 20.1344 18.5673 20.8932 17.6316 20.465L13.346 18.5035C12.9969 18.3438 12.5956 18.3438 12.2465 18.5035L7.96087 20.465C7.02517 20.8932 5.98078 20.1344 6.09893 19.1122L6.64004 14.4302C6.68411 14.0488 6.5601 13.6672 6.30029 13.3845L3.11051 9.91478C2.41407 9.15721 2.81299 7.92946 3.82171 7.72593L8.44177 6.79374C8.81808 6.71781 9.14275 6.48193 9.33125 6.1475L11.6455 2.04162Z" fill="url(#paint0_linear_1094_9299)"/>
<path d="M11.7893 2.1227C12.2314 1.3383 13.361 1.3383 13.8031 2.1227L16.1174 6.22857C16.3294 6.60481 16.6947 6.87018 17.118 6.9556L21.7381 7.88779C22.6207 8.06588 22.9698 9.14016 22.3604 9.80303L19.1706 13.2728C18.8783 13.5907 18.7388 14.0201 18.7884 14.4491L19.3295 19.1311C19.4329 20.0256 18.519 20.6895 17.7003 20.3148L13.4147 18.3534C13.022 18.1736 12.5705 18.1736 12.1778 18.3534L7.89215 20.3148C7.07341 20.6895 6.15958 20.0256 6.26295 19.1311L6.80406 14.4491C6.85365 14.0201 6.71414 13.5907 6.42184 13.2728L3.23207 9.80303C2.62268 9.14016 2.97174 8.06588 3.85437 7.88779L8.47442 6.9556C8.89778 6.87018 9.26303 6.60481 9.47509 6.22857L11.7893 2.1227Z" stroke="url(#paint1_linear_1094_9299)" stroke-width="0.330237"/>
<defs>
<linearGradient id="paint0_linear_1094_9299" x1="18.7251" y1="6.77334" x2="0.562587" y2="18.2978" gradientUnits="userSpaceOnUse">
<stop offset="0.303921" stop-color="#FF759F" stop-opacity="0.88"/>
<stop offset="1" stop-color="#FF759F" stop-opacity="0"/>
</linearGradient>
<linearGradient id="paint1_linear_1094_9299" x1="20.5948" y1="3.4786" x2="3.63526" y2="15.943" gradientUnits="userSpaceOnUse">
<stop stop-color="#FF759F"/>
<stop offset="0.999545" stop-color="#FF759F" stop-opacity="0"/>
</linearGradient>
</defs>
</svg>
