<svg width="68" height="68" viewBox="0 0 68 68" fill="none" xmlns="http://www.w3.org/2000/svg">
<g filter="url(#filter0_f_408_6365)">
<rect x="10.5" y="10.5" width="47" height="47" rx="23.5" stroke="white"/>
</g>
<rect x="10" y="10" width="48" height="48" rx="24" fill="#151515"/>
<rect x="11" y="11" width="46" height="46" rx="23" stroke="white" stroke-width="2"/>
<rect x="11" y="11" width="46" height="46" rx="23" stroke="url(#paint0_linear_408_6365)" stroke-width="2"/>
<g filter="url(#filter1_f_408_6365)">
<rect x="10.5" y="10.5" width="47" height="47" rx="23.5" stroke="white"/>
</g>
<path d="M39.45 44.1496H28.55C28.0833 44.1496 27.6833 43.9829 27.35 43.6496C27.0167 43.3163 26.85 42.9163 26.85 42.4496V25.5496C26.85 25.0829 27.0167 24.6829 27.35 24.3496C27.6833 24.0163 28.0833 23.8496 28.55 23.8496H39.45C39.9167 23.8496 40.3167 24.0163 40.65 24.3496C40.9833 24.6829 41.15 25.0829 41.15 25.5496V42.4496C41.15 42.9163 40.9833 43.3163 40.65 43.6496C40.3167 43.9829 39.9167 44.1496 39.45 44.1496ZM39.45 42.4496V25.5496H28.55V42.4496H39.45ZM34.025 30.9496C34.5583 30.9496 35.0083 30.7663 35.375 30.3996C35.7417 30.0329 35.925 29.5829 35.925 29.0496C35.925 28.5163 35.7417 28.0663 35.375 27.6996C35.0083 27.3329 34.5583 27.1496 34.025 27.1496C33.4917 27.1496 33.0417 27.3329 32.675 27.6996C32.3083 28.0663 32.125 28.5163 32.125 29.0496C32.125 29.5829 32.3083 30.0329 32.675 30.3996C33.0417 30.7663 33.4917 30.9496 34.025 30.9496ZM34 41.0996C35.15 41.0996 36.1208 40.7038 36.9125 39.9121C37.7042 39.1204 38.1 38.1496 38.1 36.9996C38.1 35.8496 37.7042 34.8788 36.9125 34.0871C36.1208 33.2954 35.15 32.8996 34 32.8996C32.85 32.8996 31.8792 33.2954 31.0875 34.0871C30.2958 34.8788 29.9 35.8496 29.9 36.9996C29.9 38.1496 30.2958 39.1204 31.0875 39.9121C31.8792 40.7038 32.85 41.0996 34 41.0996ZM34 39.5996C33.2833 39.5996 32.6708 39.3454 32.1625 38.8371C31.6542 38.3288 31.4 37.7163 31.4 36.9996C31.4 36.2829 31.6542 35.6704 32.1625 35.1621C32.6708 34.6538 33.2833 34.3996 34 34.3996C34.7167 34.3996 35.3292 34.6538 35.8375 35.1621C36.3458 35.6704 36.6 36.2829 36.6 36.9996C36.6 37.7163 36.3458 38.3288 35.8375 38.8371C35.3292 39.3454 34.7167 39.5996 34 39.5996ZM28.55 25.5496V42.4496V25.5496Z" fill="white"/>
<defs>
<filter id="filter0_f_408_6365" x="0" y="0" width="68" height="68" filterUnits="userSpaceOnUse" color-interpolation-filters="sRGB">
<feFlood flood-opacity="0" result="BackgroundImageFix"/>
<feBlend mode="normal" in="SourceGraphic" in2="BackgroundImageFix" result="shape"/>
<feGaussianBlur stdDeviation="5" result="effect1_foregroundBlur_408_6365"/>
</filter>
<filter id="filter1_f_408_6365" x="0" y="0" width="68" height="68" filterUnits="userSpaceOnUse" color-interpolation-filters="sRGB">
<feFlood flood-opacity="0" result="BackgroundImageFix"/>
<feBlend mode="normal" in="SourceGraphic" in2="BackgroundImageFix" result="shape"/>
<feGaussianBlur stdDeviation="5" result="effect1_foregroundBlur_408_6365"/>
</filter>
<linearGradient id="paint0_linear_408_6365" x1="9" y1="35" x2="56" y2="34" gradientUnits="userSpaceOnUse">
<stop stop-color="#492FE7"/>
<stop offset="1" stop-color="#F715ED" stop-opacity="0.92"/>
</linearGradient>
</defs>
</svg>
