<svg width="26" height="26" viewBox="0 0 26 26" fill="none" xmlns="http://www.w3.org/2000/svg">
<circle cx="13" cy="13" r="13" fill="#E8C549"/>
<path fill-rule="evenodd" clip-rule="evenodd" d="M15.6667 8.33301C16.403 8.33301 17 8.92996 17 9.66634V16.333C17 17.0694 16.403 17.6663 15.6667 17.6663C14.9303 17.6663 14.3333 17.0694 14.3333 16.333V9.66634C14.3333 8.92996 14.9303 8.33301 15.6667 8.33301Z" fill="url(#paint0_linear_984_7974)"/>
<path fill-rule="evenodd" clip-rule="evenodd" d="M10.3333 8.33301C11.0697 8.33301 11.6667 8.92996 11.6667 9.66634V16.333C11.6667 17.0694 11.0697 17.6663 10.3333 17.6663C9.59695 17.6663 9 17.0694 9 16.333V9.66634C9 8.92996 9.59695 8.33301 10.3333 8.33301Z" fill="url(#paint1_linear_984_7974)"/>
<defs>
<linearGradient id="paint0_linear_984_7974" x1="13" y1="8.33301" x2="13" y2="17.6663" gradientUnits="userSpaceOnUse">
<stop stop-color="white"/>
<stop offset="1" stop-color="white" stop-opacity="0.75"/>
</linearGradient>
<linearGradient id="paint1_linear_984_7974" x1="13" y1="8.33301" x2="13" y2="17.6663" gradientUnits="userSpaceOnUse">
<stop stop-color="white"/>
<stop offset="1" stop-color="white" stop-opacity="0.75"/>
</linearGradient>
</defs>
</svg>
