<svg width="26" height="26" viewBox="0 0 26 26" fill="none" xmlns="http://www.w3.org/2000/svg">
<circle cx="13" cy="13" r="13" fill="#7D6CE4"/>
<path d="M7.4548 11.7411C7.4548 10.301 8.62416 9.13366 10.0666 9.13366C11.5091 9.13366 12.6784 10.301 12.6784 11.7411C12.6784 13.1811 11.5091 14.3485 10.0666 14.3485C8.62416 14.3485 7.4548 13.1811 7.4548 11.7411Z" fill="url(#paint0_linear_1401_9271)"/>
<path d="M10.0666 15.3914C8.53369 15.3914 7.15498 15.787 6.1994 16.4169C4.99571 17.2105 6.01233 18.5203 7.4548 18.5203H12.6784C14.1209 18.5203 15.1375 17.2105 13.9338 16.4169C12.9783 15.787 11.5996 15.3914 10.0666 15.3914Z" fill="url(#paint1_linear_1401_9271)"/>
<path d="M15.9201 17.0537C15.9135 17.0007 15.9044 16.9473 15.8927 16.8937C15.7759 16.3615 15.4248 15.9301 14.9474 15.6154C14.2951 15.1854 13.5103 14.8482 12.6424 14.6236C13.5406 14.1867 14.6859 13.9248 15.9333 13.9248C17.4662 13.9248 18.8449 14.3203 19.8005 14.9502C21.0042 15.7438 19.9876 17.0537 18.5451 17.0537H15.9201Z" fill="url(#paint2_linear_1401_9271)"/>
<path d="M14.0548 10.2293C14.0548 8.81419 15.2039 7.66699 16.6215 7.66699C18.039 7.66699 19.1881 8.81419 19.1881 10.2293C19.1881 11.6445 18.039 12.7916 16.6215 12.7916C15.2039 12.7916 14.0548 11.6445 14.0548 10.2293Z" fill="url(#paint3_linear_1401_9271)"/>
<defs>
<linearGradient id="paint0_linear_1401_9271" x1="13" y1="7.66699" x2="13" y2="18.5203" gradientUnits="userSpaceOnUse">
<stop stop-color="white"/>
<stop offset="1" stop-color="white" stop-opacity="0.75"/>
</linearGradient>
<linearGradient id="paint1_linear_1401_9271" x1="13" y1="7.66699" x2="13" y2="18.5203" gradientUnits="userSpaceOnUse">
<stop stop-color="white"/>
<stop offset="1" stop-color="white" stop-opacity="0.75"/>
</linearGradient>
<linearGradient id="paint2_linear_1401_9271" x1="13" y1="7.66699" x2="13" y2="18.5203" gradientUnits="userSpaceOnUse">
<stop stop-color="white"/>
<stop offset="1" stop-color="white" stop-opacity="0.75"/>
</linearGradient>
<linearGradient id="paint3_linear_1401_9271" x1="13" y1="7.66699" x2="13" y2="18.5203" gradientUnits="userSpaceOnUse">
<stop stop-color="white"/>
<stop offset="1" stop-color="white" stop-opacity="0.75"/>
</linearGradient>
</defs>
</svg>
