<svg width="14" height="4" viewBox="0 0 14 4" fill="none" xmlns="http://www.w3.org/2000/svg">
<path d="M5.33325 2.33317C5.33325 1.4127 6.07944 0.666504 6.99992 0.666504C7.92039 0.666504 8.66659 1.4127 8.66659 2.33317C8.66659 3.25365 7.92039 3.99984 6.99992 3.99984C6.07944 3.99984 5.33325 3.25365 5.33325 2.33317Z" fill="url(#paint0_linear_1376_466)"/>
<path d="M0.333252 2.33317C0.333252 1.4127 1.07944 0.666504 1.99992 0.666504C2.92039 0.666504 3.66659 1.4127 3.66659 2.33317C3.66659 3.25365 2.92039 3.99984 1.99992 3.99984C1.07944 3.99984 0.333252 3.25365 0.333252 2.33317Z" fill="url(#paint1_linear_1376_466)"/>
<path d="M10.3333 2.33317C10.3333 1.4127 11.0794 0.666504 11.9999 0.666504C12.9204 0.666504 13.6666 1.4127 13.6666 2.33317C13.6666 3.25365 12.9204 3.99984 11.9999 3.99984C11.0794 3.99984 10.3333 3.25365 10.3333 2.33317Z" fill="url(#paint2_linear_1376_466)"/>
<defs>
<linearGradient id="paint0_linear_1376_466" x1="6.99992" y1="0.666504" x2="6.99992" y2="3.99984" gradientUnits="userSpaceOnUse">
<stop stop-color="white"/>
<stop offset="1" stop-color="white" stop-opacity="0.75"/>
</linearGradient>
<linearGradient id="paint1_linear_1376_466" x1="6.99992" y1="0.666504" x2="6.99992" y2="3.99984" gradientUnits="userSpaceOnUse">
<stop stop-color="white"/>
<stop offset="1" stop-color="white" stop-opacity="0.75"/>
</linearGradient>
<linearGradient id="paint2_linear_1376_466" x1="6.99992" y1="0.666504" x2="6.99992" y2="3.99984" gradientUnits="userSpaceOnUse">
<stop stop-color="white"/>
<stop offset="1" stop-color="white" stop-opacity="0.75"/>
</linearGradient>
</defs>
</svg>
